<svg xmlns="http://www.w3.org/2000/svg" width="1120" height="1246" viewBox="0 0 1120 1246">
<rect width="100%" height="100%" fill="white"/>
<text x="24" y="28" font-family="Arial, sans-serif" font-size="18" font-weight="700">Microraptor pack and side-channel throughput</text>
<text x="24" y="46" font-family="Arial, sans-serif" font-size="12" fill="#555">bases/s; rows include base packing and quality summary work</text>
<text x="24" y="71" font-family="Arial, sans-serif" font-size="12" fill="#222">single.fastq / file-pack-seq-qual</text>
<rect x="310" y="58" width="623" height="18" fill="#1f766f"/>
<text x="941" y="71" font-family="Arial, sans-serif" font-size="12" fill="#222">0.51 Gbases/s</text>
<text x="24" y="101" font-family="Arial, sans-serif" font-size="12" fill="#222">single.fastq / file-direct-pack-seq-qual</text>
<rect x="310" y="88" width="445" height="18" fill="#1f766f"/>
<text x="763" y="101" font-family="Arial, sans-serif" font-size="12" fill="#222">0.37 Gbases/s</text>
<text x="24" y="131" font-family="Arial, sans-serif" font-size="12" fill="#222">single.fastq / file-reader-pack-seq-qual</text>
<rect x="310" y="118" width="578" height="18" fill="#1f766f"/>
<text x="896" y="131" font-family="Arial, sans-serif" font-size="12" fill="#222">0.48 Gbases/s</text>
<text x="24" y="161" font-family="Arial, sans-serif" font-size="12" fill="#222">single.fastq.gz / file-pack-seq-qual</text>
<rect x="310" y="148" width="577" height="18" fill="#1f766f"/>
<text x="895" y="161" font-family="Arial, sans-serif" font-size="12" fill="#222">0.47 Gbases/s</text>
<text x="24" y="191" font-family="Arial, sans-serif" font-size="12" fill="#222">single.fastq.gz / file-direct-pack-seq-qual</text>
<rect x="310" y="178" width="507" height="18" fill="#1f766f"/>
<text x="825" y="191" font-family="Arial, sans-serif" font-size="12" fill="#222">0.42 Gbases/s</text>
<text x="24" y="221" font-family="Arial, sans-serif" font-size="12" fill="#222">single.fastq.gz / file-reader-pack-seq-qual</text>
<rect x="310" y="208" width="576" height="18" fill="#1f766f"/>
<text x="894" y="221" font-family="Arial, sans-serif" font-size="12" fill="#222">0.47 Gbases/s</text>
<text x="24" y="251" font-family="Arial, sans-serif" font-size="12" fill="#222">single.fastq.bgz / file-pack-seq-qual</text>
<rect x="310" y="238" width="626" height="18" fill="#1f766f"/>
<text x="944" y="251" font-family="Arial, sans-serif" font-size="12" fill="#222">0.51 Gbases/s</text>
<text x="24" y="281" font-family="Arial, sans-serif" font-size="12" fill="#222">single.fastq.bgz / file-direct-pack-seq-qual</text>
<rect x="310" y="268" width="530" height="18" fill="#1f766f"/>
<text x="848" y="281" font-family="Arial, sans-serif" font-size="12" fill="#222">0.44 Gbases/s</text>
<text x="24" y="311" font-family="Arial, sans-serif" font-size="12" fill="#222">single.fastq.bgz / file-reader-pack-seq-qual</text>
<rect x="310" y="298" width="650" height="18" fill="#1f766f"/>
<text x="968" y="311" font-family="Arial, sans-serif" font-size="12" fill="#222">0.53 Gbases/s</text>
<text x="24" y="341" font-family="Arial, sans-serif" font-size="12" fill="#222">single.fastq.bgz / file-bgzf-adaptive-pack-seq-qual</text>
<rect x="310" y="328" width="532" height="18" fill="#1f766f"/>
<text x="850" y="341" font-family="Arial, sans-serif" font-size="12" fill="#222">0.44 Gbases/s</text>
<text x="24" y="371" font-family="Arial, sans-serif" font-size="12" fill="#222">single.fastq.bgz / file-bgzf-libdeflate-serial-pack-seq-qual</text>
<rect x="310" y="358" width="403" height="18" fill="#1f766f"/>
<text x="721" y="371" font-family="Arial, sans-serif" font-size="12" fill="#222">0.33 Gbases/s</text>
<text x="24" y="401" font-family="Arial, sans-serif" font-size="12" fill="#222">single.fastq.bgz / file-bgzf-libdeflate-adaptive-pack-seq-qual</text>
<rect x="310" y="388" width="620" height="18" fill="#1f766f"/>
<text x="938" y="401" font-family="Arial, sans-serif" font-size="12" fill="#222">0.51 Gbases/s</text>
<text x="24" y="431" font-family="Arial, sans-serif" font-size="12" fill="#222">interleaved.fastq / file-pack-seq-qual</text>
<rect x="310" y="418" width="631" height="18" fill="#1f766f"/>
<text x="949" y="431" font-family="Arial, sans-serif" font-size="12" fill="#222">0.52 Gbases/s</text>
<text x="24" y="461" font-family="Arial, sans-serif" font-size="12" fill="#222">interleaved.fastq / file-direct-pack-seq-qual</text>
<rect x="310" y="448" width="555" height="18" fill="#1f766f"/>
<text x="873" y="461" font-family="Arial, sans-serif" font-size="12" fill="#222">0.46 Gbases/s</text>
<text x="24" y="491" font-family="Arial, sans-serif" font-size="12" fill="#222">interleaved.fastq / file-reader-pack-seq-qual</text>
<rect x="310" y="478" width="634" height="18" fill="#1f766f"/>
<text x="952" y="491" font-family="Arial, sans-serif" font-size="12" fill="#222">0.52 Gbases/s</text>
<text x="24" y="521" font-family="Arial, sans-serif" font-size="12" fill="#222">interleaved.fastq.gz / file-pack-seq-qual</text>
<rect x="310" y="508" width="539" height="18" fill="#1f766f"/>
<text x="857" y="521" font-family="Arial, sans-serif" font-size="12" fill="#222">0.44 Gbases/s</text>
<text x="24" y="551" font-family="Arial, sans-serif" font-size="12" fill="#222">interleaved.fastq.gz / file-direct-pack-seq-qual</text>
<rect x="310" y="538" width="487" height="18" fill="#1f766f"/>
<text x="805" y="551" font-family="Arial, sans-serif" font-size="12" fill="#222">0.40 Gbases/s</text>
<text x="24" y="581" font-family="Arial, sans-serif" font-size="12" fill="#222">interleaved.fastq.gz / file-reader-pack-seq-qual</text>
<rect x="310" y="568" width="550" height="18" fill="#1f766f"/>
<text x="868" y="581" font-family="Arial, sans-serif" font-size="12" fill="#222">0.45 Gbases/s</text>
<text x="24" y="611" font-family="Arial, sans-serif" font-size="12" fill="#222">interleaved.fastq.bgz / file-pack-seq-qual</text>
<rect x="310" y="598" width="624" height="18" fill="#1f766f"/>
<text x="942" y="611" font-family="Arial, sans-serif" font-size="12" fill="#222">0.51 Gbases/s</text>
<text x="24" y="641" font-family="Arial, sans-serif" font-size="12" fill="#222">interleaved.fastq.bgz / file-direct-pack-seq-qual</text>
<rect x="310" y="628" width="569" height="18" fill="#1f766f"/>
<text x="887" y="641" font-family="Arial, sans-serif" font-size="12" fill="#222">0.47 Gbases/s</text>
<text x="24" y="671" font-family="Arial, sans-serif" font-size="12" fill="#222">interleaved.fastq.bgz / file-reader-pack-seq-qual</text>
<rect x="310" y="658" width="626" height="18" fill="#1f766f"/>
<text x="944" y="671" font-family="Arial, sans-serif" font-size="12" fill="#222">0.52 Gbases/s</text>
<text x="24" y="701" font-family="Arial, sans-serif" font-size="12" fill="#222">interleaved.fastq.bgz / file-bgzf-adaptive-pack-seq-qual</text>
<rect x="310" y="688" width="632" height="18" fill="#1f766f"/>
<text x="950" y="701" font-family="Arial, sans-serif" font-size="12" fill="#222">0.52 Gbases/s</text>
<text x="24" y="731" font-family="Arial, sans-serif" font-size="12" fill="#222">interleaved.fastq.bgz / file-bgzf-libdeflate-serial-pack-seq-qual</text>
<rect x="310" y="718" width="583" height="18" fill="#1f766f"/>
<text x="901" y="731" font-family="Arial, sans-serif" font-size="12" fill="#222">0.48 Gbases/s</text>
<text x="24" y="761" font-family="Arial, sans-serif" font-size="12" fill="#222">interleaved.fastq.bgz / file-bgzf-libdeflate-adaptive-pack-seq-qual</text>
<rect x="310" y="748" width="638" height="18" fill="#1f766f"/>
<text x="956" y="761" font-family="Arial, sans-serif" font-size="12" fill="#222">0.53 Gbases/s</text>
<text x="24" y="791" font-family="Arial, sans-serif" font-size="12" fill="#222">r1.fastq / file-pack-seq-qual</text>
<rect x="310" y="778" width="600" height="18" fill="#1f766f"/>
<text x="918" y="791" font-family="Arial, sans-serif" font-size="12" fill="#222">0.49 Gbases/s</text>
<text x="24" y="821" font-family="Arial, sans-serif" font-size="12" fill="#222">r1.fastq / file-direct-pack-seq-qual</text>
<rect x="310" y="808" width="530" height="18" fill="#1f766f"/>
<text x="848" y="821" font-family="Arial, sans-serif" font-size="12" fill="#222">0.44 Gbases/s</text>
<text x="24" y="851" font-family="Arial, sans-serif" font-size="12" fill="#222">r1.fastq / file-reader-pack-seq-qual</text>
<rect x="310" y="838" width="601" height="18" fill="#1f766f"/>
<text x="919" y="851" font-family="Arial, sans-serif" font-size="12" fill="#222">0.49 Gbases/s</text>
<text x="24" y="881" font-family="Arial, sans-serif" font-size="12" fill="#222">r2.fastq / file-pack-seq-qual</text>
<rect x="310" y="868" width="614" height="18" fill="#1f766f"/>
<text x="932" y="881" font-family="Arial, sans-serif" font-size="12" fill="#222">0.50 Gbases/s</text>
<text x="24" y="911" font-family="Arial, sans-serif" font-size="12" fill="#222">r2.fastq / file-direct-pack-seq-qual</text>
<rect x="310" y="898" width="537" height="18" fill="#1f766f"/>
<text x="855" y="911" font-family="Arial, sans-serif" font-size="12" fill="#222">0.44 Gbases/s</text>
<text x="24" y="941" font-family="Arial, sans-serif" font-size="12" fill="#222">r2.fastq / file-reader-pack-seq-qual</text>
<rect x="310" y="928" width="626" height="18" fill="#1f766f"/>
<text x="944" y="941" font-family="Arial, sans-serif" font-size="12" fill="#222">0.51 Gbases/s</text>
<text x="24" y="971" font-family="Arial, sans-serif" font-size="12" fill="#222">r1.fastq+r2.fastq / file-paired-pack-seq-qual</text>
<rect x="310" y="958" width="615" height="18" fill="#1f766f"/>
<text x="933" y="971" font-family="Arial, sans-serif" font-size="12" fill="#222">0.51 Gbases/s</text>
<text x="24" y="1001" font-family="Arial, sans-serif" font-size="12" fill="#222">r1.fastq+r2.fastq / file-paired-trusted-pack-seq-qual</text>
<rect x="310" y="988" width="643" height="18" fill="#1f766f"/>
<text x="961" y="1001" font-family="Arial, sans-serif" font-size="12" fill="#222">0.53 Gbases/s</text>
<text x="24" y="1031" font-family="Arial, sans-serif" font-size="12" fill="#222">r1.fastq.gz+r2.fastq.gz / file-paired-pack-seq-qual</text>
<rect x="310" y="1018" width="564" height="18" fill="#1f766f"/>
<text x="882" y="1031" font-family="Arial, sans-serif" font-size="12" fill="#222">0.46 Gbases/s</text>
<text x="24" y="1061" font-family="Arial, sans-serif" font-size="12" fill="#222">r1.fastq.gz+r2.fastq.gz / file-paired-trusted-pack-seq-qual</text>
<rect x="310" y="1048" width="574" height="18" fill="#1f766f"/>
<text x="892" y="1061" font-family="Arial, sans-serif" font-size="12" fill="#222">0.47 Gbases/s</text>
<text x="24" y="1091" font-family="Arial, sans-serif" font-size="12" fill="#222">r1.fastq.bgz+r2.fastq.bgz / file-paired-pack-seq-qual</text>
<rect x="310" y="1078" width="602" height="18" fill="#1f766f"/>
<text x="920" y="1091" font-family="Arial, sans-serif" font-size="12" fill="#222">0.50 Gbases/s</text>
<text x="24" y="1121" font-family="Arial, sans-serif" font-size="12" fill="#222">r1.fastq.bgz+r2.fastq.bgz / file-paired-trusted-pack-seq-qual</text>
<rect x="310" y="1108" width="599" height="18" fill="#1f766f"/>
<text x="917" y="1121" font-family="Arial, sans-serif" font-size="12" fill="#222">0.49 Gbases/s</text>
<text x="24" y="1151" font-family="Arial, sans-serif" font-size="12" fill="#222">illumina_pe_r1.1m.fq+illumina_pe_r2.1m.fq / file-paired-pack-seq-qual</text>
<rect x="310" y="1138" width="151" height="18" fill="#1f766f"/>
<text x="469" y="1151" font-family="Arial, sans-serif" font-size="12" fill="#222">0.12 Gbases/s</text>
<text x="24" y="1181" font-family="Arial, sans-serif" font-size="12" fill="#222">illumina_pe_r1.1m.fq+illumina_pe_r2.1m.fq / file-paired-trusted-pack-seq-qual</text>
<rect x="310" y="1168" width="157" height="18" fill="#1f766f"/>
<text x="475" y="1181" font-family="Arial, sans-serif" font-size="12" fill="#222">0.13 Gbases/s</text>
</svg>
