<svg xmlns="http://www.w3.org/2000/svg" width="980" height="1126" viewBox="0 0 980 1126">
<rect width="100%" height="100%" fill="white"/>
<text x="24" y="28" font-family="Arial, sans-serif" font-size="18" font-weight="700">External tool wall-clock timings</text>
<text x="24" y="46" font-family="Arial, sans-serif" font-size="12" fill="#555">seconds; only installed tools with successful exit status are shown</text>
<text x="24" y="71" font-family="Arial, sans-serif" font-size="12" fill="#222">seqkit stats single/raw</text>
<rect x="290" y="58" width="55" height="18" fill="#7a4a1d"/>
<text x="353" y="71" font-family="Arial, sans-serif" font-size="12" fill="#222">0.02 s</text>
<text x="24" y="101" font-family="Arial, sans-serif" font-size="12" fill="#222">seqkit stats single/gzip</text>
<rect x="290" y="88" width="55" height="18" fill="#7a4a1d"/>
<text x="353" y="101" font-family="Arial, sans-serif" font-size="12" fill="#222">0.02 s</text>
<text x="24" y="131" font-family="Arial, sans-serif" font-size="12" fill="#222">seqkit stats single/bgzf</text>
<rect x="290" y="118" width="84" height="18" fill="#7a4a1d"/>
<text x="382" y="131" font-family="Arial, sans-serif" font-size="12" fill="#222">0.03 s</text>
<text x="24" y="161" font-family="Arial, sans-serif" font-size="12" fill="#222">seqkit stats paired/r1/raw</text>
<rect x="290" y="148" width="55" height="18" fill="#7a4a1d"/>
<text x="353" y="161" font-family="Arial, sans-serif" font-size="12" fill="#222">0.02 s</text>
<text x="24" y="191" font-family="Arial, sans-serif" font-size="12" fill="#222">seqkit stats paired/r2/raw</text>
<rect x="290" y="178" width="55" height="18" fill="#7a4a1d"/>
<text x="353" y="191" font-family="Arial, sans-serif" font-size="12" fill="#222">0.02 s</text>
<text x="24" y="221" font-family="Arial, sans-serif" font-size="12" fill="#222">seqkit stats paired/r1/gzip</text>
<rect x="290" y="208" width="55" height="18" fill="#7a4a1d"/>
<text x="353" y="221" font-family="Arial, sans-serif" font-size="12" fill="#222">0.02 s</text>
<text x="24" y="251" font-family="Arial, sans-serif" font-size="12" fill="#222">seqkit stats paired/r2/gzip</text>
<rect x="290" y="238" width="55" height="18" fill="#7a4a1d"/>
<text x="353" y="251" font-family="Arial, sans-serif" font-size="12" fill="#222">0.02 s</text>
<text x="24" y="281" font-family="Arial, sans-serif" font-size="12" fill="#222">seqkit stats paired/r1/bgzf</text>
<rect x="290" y="268" width="111" height="18" fill="#7a4a1d"/>
<text x="409" y="281" font-family="Arial, sans-serif" font-size="12" fill="#222">0.04 s</text>
<text x="24" y="311" font-family="Arial, sans-serif" font-size="12" fill="#222">seqkit stats paired/r2/bgzf</text>
<rect x="290" y="298" width="111" height="18" fill="#7a4a1d"/>
<text x="409" y="311" font-family="Arial, sans-serif" font-size="12" fill="#222">0.04 s</text>
<text x="24" y="341" font-family="Arial, sans-serif" font-size="12" fill="#222">seqtk comp single/raw</text>
<rect x="290" y="328" width="196" height="18" fill="#7a4a1d"/>
<text x="494" y="341" font-family="Arial, sans-serif" font-size="12" fill="#222">0.07 s</text>
<text x="24" y="371" font-family="Arial, sans-serif" font-size="12" fill="#222">seqtk comp single/gzip</text>
<rect x="290" y="358" width="196" height="18" fill="#7a4a1d"/>
<text x="494" y="371" font-family="Arial, sans-serif" font-size="12" fill="#222">0.07 s</text>
<text x="24" y="401" font-family="Arial, sans-serif" font-size="12" fill="#222">seqtk comp single/bgzf</text>
<rect x="290" y="388" width="196" height="18" fill="#7a4a1d"/>
<text x="494" y="401" font-family="Arial, sans-serif" font-size="12" fill="#222">0.07 s</text>
<text x="24" y="431" font-family="Arial, sans-serif" font-size="12" fill="#222">seqtk fqchk single/raw</text>
<rect x="290" y="418" width="55" height="18" fill="#7a4a1d"/>
<text x="353" y="431" font-family="Arial, sans-serif" font-size="12" fill="#222">0.02 s</text>
<text x="24" y="461" font-family="Arial, sans-serif" font-size="12" fill="#222">bgzip test single/bgzf</text>
<rect x="290" y="448" width="0" height="18" fill="#7a4a1d"/>
<text x="298" y="461" font-family="Arial, sans-serif" font-size="12" fill="#222">0.00 s</text>
<text x="24" y="491" font-family="Arial, sans-serif" font-size="12" fill="#222">bgzip decompress single/bgzf</text>
<rect x="290" y="478" width="0" height="18" fill="#7a4a1d"/>
<text x="298" y="491" font-family="Arial, sans-serif" font-size="12" fill="#222">0.00 s</text>
<text x="24" y="521" font-family="Arial, sans-serif" font-size="12" fill="#222">samtools import single/raw</text>
<rect x="290" y="508" width="111" height="18" fill="#7a4a1d"/>
<text x="409" y="521" font-family="Arial, sans-serif" font-size="12" fill="#222">0.04 s</text>
<text x="24" y="551" font-family="Arial, sans-serif" font-size="12" fill="#222">samtools import paired/raw</text>
<rect x="290" y="538" width="168" height="18" fill="#7a4a1d"/>
<text x="466" y="551" font-family="Arial, sans-serif" font-size="12" fill="#222">0.06 s</text>
<text x="24" y="581" font-family="Arial, sans-serif" font-size="12" fill="#222">samtools import paired/gzip</text>
<rect x="290" y="568" width="280" height="18" fill="#7a4a1d"/>
<text x="578" y="581" font-family="Arial, sans-serif" font-size="12" fill="#222">0.10 s</text>
<text x="24" y="611" font-family="Arial, sans-serif" font-size="12" fill="#222">samtools import paired/bgzf</text>
<rect x="290" y="598" width="196" height="18" fill="#7a4a1d"/>
<text x="494" y="611" font-family="Arial, sans-serif" font-size="12" fill="#222">0.07 s</text>
<text x="24" y="641" font-family="Arial, sans-serif" font-size="12" fill="#222">fastp paired/raw</text>
<rect x="290" y="628" width="560" height="18" fill="#7a4a1d"/>
<text x="858" y="641" font-family="Arial, sans-serif" font-size="12" fill="#222">0.20 s</text>
<text x="24" y="671" font-family="Arial, sans-serif" font-size="12" fill="#222">fastp paired/gzip</text>
<rect x="290" y="658" width="532" height="18" fill="#7a4a1d"/>
<text x="830" y="671" font-family="Arial, sans-serif" font-size="12" fill="#222">0.19 s</text>
<text x="24" y="701" font-family="Arial, sans-serif" font-size="12" fill="#222">fastp paired/bgzf</text>
<rect x="290" y="688" width="336" height="18" fill="#7a4a1d"/>
<text x="634" y="701" font-family="Arial, sans-serif" font-size="12" fill="#222">0.12 s</text>
<text x="24" y="731" font-family="Arial, sans-serif" font-size="12" fill="#222">seqkit stats corpus-paired/ecoli_mg1655_srr001666_100k_pairs/r1</text>
<rect x="290" y="718" width="27" height="18" fill="#7a4a1d"/>
<text x="325" y="731" font-family="Arial, sans-serif" font-size="12" fill="#222">0.01 s</text>
<text x="24" y="761" font-family="Arial, sans-serif" font-size="12" fill="#222">seqkit stats corpus-paired/ecoli_mg1655_srr001666_100k_pairs/r2</text>
<rect x="290" y="748" width="27" height="18" fill="#7a4a1d"/>
<text x="325" y="761" font-family="Arial, sans-serif" font-size="12" fill="#222">0.01 s</text>
<text x="24" y="791" font-family="Arial, sans-serif" font-size="12" fill="#222">seqtk fqchk corpus-paired/ecoli_mg1655_srr001666_100k_pairs/r1</text>
<rect x="290" y="778" width="27" height="18" fill="#7a4a1d"/>
<text x="325" y="791" font-family="Arial, sans-serif" font-size="12" fill="#222">0.01 s</text>
<text x="24" y="821" font-family="Arial, sans-serif" font-size="12" fill="#222">seqtk fqchk corpus-paired/ecoli_mg1655_srr001666_100k_pairs/r2</text>
<rect x="290" y="808" width="27" height="18" fill="#7a4a1d"/>
<text x="325" y="821" font-family="Arial, sans-serif" font-size="12" fill="#222">0.01 s</text>
<text x="24" y="851" font-family="Arial, sans-serif" font-size="12" fill="#222">samtools import corpus-paired/ecoli_mg1655_srr001666_100k_pairs</text>
<rect x="290" y="838" width="140" height="18" fill="#7a4a1d"/>
<text x="438" y="851" font-family="Arial, sans-serif" font-size="12" fill="#222">0.05 s</text>
<text x="24" y="881" font-family="Arial, sans-serif" font-size="12" fill="#222">fastp corpus-paired/ecoli_mg1655_srr001666_100k_pairs</text>
<rect x="290" y="868" width="476" height="18" fill="#7a4a1d"/>
<text x="774" y="881" font-family="Arial, sans-serif" font-size="12" fill="#222">0.17 s</text>
<text x="24" y="911" font-family="Arial, sans-serif" font-size="12" fill="#222">seqkit stats corpus-paired/yeast_btt_err1308583_10k_pairs/r1</text>
<rect x="290" y="898" width="27" height="18" fill="#7a4a1d"/>
<text x="325" y="911" font-family="Arial, sans-serif" font-size="12" fill="#222">0.01 s</text>
<text x="24" y="941" font-family="Arial, sans-serif" font-size="12" fill="#222">seqkit stats corpus-paired/yeast_btt_err1308583_10k_pairs/r2</text>
<rect x="290" y="928" width="27" height="18" fill="#7a4a1d"/>
<text x="325" y="941" font-family="Arial, sans-serif" font-size="12" fill="#222">0.01 s</text>
<text x="24" y="971" font-family="Arial, sans-serif" font-size="12" fill="#222">seqtk fqchk corpus-paired/yeast_btt_err1308583_10k_pairs/r1</text>
<rect x="290" y="958" width="0" height="18" fill="#7a4a1d"/>
<text x="298" y="971" font-family="Arial, sans-serif" font-size="12" fill="#222">0.00 s</text>
<text x="24" y="1001" font-family="Arial, sans-serif" font-size="12" fill="#222">seqtk fqchk corpus-paired/yeast_btt_err1308583_10k_pairs/r2</text>
<rect x="290" y="988" width="0" height="18" fill="#7a4a1d"/>
<text x="298" y="1001" font-family="Arial, sans-serif" font-size="12" fill="#222">0.00 s</text>
<text x="24" y="1031" font-family="Arial, sans-serif" font-size="12" fill="#222">samtools import corpus-paired/yeast_btt_err1308583_10k_pairs</text>
<rect x="290" y="1018" width="55" height="18" fill="#7a4a1d"/>
<text x="353" y="1031" font-family="Arial, sans-serif" font-size="12" fill="#222">0.02 s</text>
<text x="24" y="1061" font-family="Arial, sans-serif" font-size="12" fill="#222">fastp corpus-paired/yeast_btt_err1308583_10k_pairs</text>
<rect x="290" y="1048" width="392" height="18" fill="#7a4a1d"/>
<text x="690" y="1061" font-family="Arial, sans-serif" font-size="12" fill="#222">0.14 s</text>
</svg>
