<svg xmlns="http://www.w3.org/2000/svg" width="1120" height="1306" viewBox="0 0 1120 1306">
<rect width="100%" height="100%" fill="white"/>
<text x="24" y="28" font-family="Arial, sans-serif" font-size="18" font-weight="700">Microraptor pack and side-channel throughput</text>
<text x="24" y="46" font-family="Arial, sans-serif" font-size="12" fill="#555">bases/s; rows include base packing and quality summary work</text>
<text x="24" y="71" font-family="Arial, sans-serif" font-size="12" fill="#222">single.fastq / file-pack-seq-qual</text>
<rect x="310" y="58" width="611" height="18" fill="#1f766f"/>
<text x="929" y="71" font-family="Arial, sans-serif" font-size="12" fill="#222">0.55 Gbases/s</text>
<text x="24" y="101" font-family="Arial, sans-serif" font-size="12" fill="#222">single.fastq / file-direct-pack-seq-qual</text>
<rect x="310" y="88" width="536" height="18" fill="#1f766f"/>
<text x="854" y="101" font-family="Arial, sans-serif" font-size="12" fill="#222">0.48 Gbases/s</text>
<text x="24" y="131" font-family="Arial, sans-serif" font-size="12" fill="#222">single.fastq / file-reader-pack-seq-qual</text>
<rect x="310" y="118" width="613" height="18" fill="#1f766f"/>
<text x="931" y="131" font-family="Arial, sans-serif" font-size="12" fill="#222">0.55 Gbases/s</text>
<text x="24" y="161" font-family="Arial, sans-serif" font-size="12" fill="#222">single.fastq.gz / file-pack-seq-qual</text>
<rect x="310" y="148" width="522" height="18" fill="#1f766f"/>
<text x="840" y="161" font-family="Arial, sans-serif" font-size="12" fill="#222">0.47 Gbases/s</text>
<text x="24" y="191" font-family="Arial, sans-serif" font-size="12" fill="#222">single.fastq.gz / file-direct-pack-seq-qual</text>
<rect x="310" y="178" width="471" height="18" fill="#1f766f"/>
<text x="789" y="191" font-family="Arial, sans-serif" font-size="12" fill="#222">0.43 Gbases/s</text>
<text x="24" y="221" font-family="Arial, sans-serif" font-size="12" fill="#222">single.fastq.gz / file-reader-pack-seq-qual</text>
<rect x="310" y="208" width="532" height="18" fill="#1f766f"/>
<text x="850" y="221" font-family="Arial, sans-serif" font-size="12" fill="#222">0.48 Gbases/s</text>
<text x="24" y="251" font-family="Arial, sans-serif" font-size="12" fill="#222">single.fastq.bgz / file-pack-seq-qual</text>
<rect x="310" y="238" width="609" height="18" fill="#1f766f"/>
<text x="927" y="251" font-family="Arial, sans-serif" font-size="12" fill="#222">0.55 Gbases/s</text>
<text x="24" y="281" font-family="Arial, sans-serif" font-size="12" fill="#222">single.fastq.bgz / file-direct-pack-seq-qual</text>
<rect x="310" y="268" width="527" height="18" fill="#1f766f"/>
<text x="845" y="281" font-family="Arial, sans-serif" font-size="12" fill="#222">0.48 Gbases/s</text>
<text x="24" y="311" font-family="Arial, sans-serif" font-size="12" fill="#222">single.fastq.bgz / file-reader-pack-seq-qual</text>
<rect x="310" y="298" width="624" height="18" fill="#1f766f"/>
<text x="942" y="311" font-family="Arial, sans-serif" font-size="12" fill="#222">0.56 Gbases/s</text>
<text x="24" y="341" font-family="Arial, sans-serif" font-size="12" fill="#222">single.fastq.bgz / file-bgzf-adaptive-pack-seq-qual</text>
<rect x="310" y="328" width="609" height="18" fill="#1f766f"/>
<text x="927" y="341" font-family="Arial, sans-serif" font-size="12" fill="#222">0.55 Gbases/s</text>
<text x="24" y="371" font-family="Arial, sans-serif" font-size="12" fill="#222">single.fastq.bgz / file-bgzf-libdeflate-serial-pack-seq-qual</text>
<rect x="310" y="358" width="541" height="18" fill="#1f766f"/>
<text x="859" y="371" font-family="Arial, sans-serif" font-size="12" fill="#222">0.49 Gbases/s</text>
<text x="24" y="401" font-family="Arial, sans-serif" font-size="12" fill="#222">single.fastq.bgz / file-bgzf-libdeflate-adaptive-pack-seq-qual</text>
<rect x="310" y="388" width="614" height="18" fill="#1f766f"/>
<text x="932" y="401" font-family="Arial, sans-serif" font-size="12" fill="#222">0.56 Gbases/s</text>
<text x="24" y="431" font-family="Arial, sans-serif" font-size="12" fill="#222">interleaved.fastq / file-pack-seq-qual</text>
<rect x="310" y="418" width="584" height="18" fill="#1f766f"/>
<text x="902" y="431" font-family="Arial, sans-serif" font-size="12" fill="#222">0.53 Gbases/s</text>
<text x="24" y="461" font-family="Arial, sans-serif" font-size="12" fill="#222">interleaved.fastq / file-direct-pack-seq-qual</text>
<rect x="310" y="448" width="519" height="18" fill="#1f766f"/>
<text x="837" y="461" font-family="Arial, sans-serif" font-size="12" fill="#222">0.47 Gbases/s</text>
<text x="24" y="491" font-family="Arial, sans-serif" font-size="12" fill="#222">interleaved.fastq / file-reader-pack-seq-qual</text>
<rect x="310" y="478" width="575" height="18" fill="#1f766f"/>
<text x="893" y="491" font-family="Arial, sans-serif" font-size="12" fill="#222">0.52 Gbases/s</text>
<text x="24" y="521" font-family="Arial, sans-serif" font-size="12" fill="#222">interleaved.fastq.gz / file-pack-seq-qual</text>
<rect x="310" y="508" width="507" height="18" fill="#1f766f"/>
<text x="825" y="521" font-family="Arial, sans-serif" font-size="12" fill="#222">0.46 Gbases/s</text>
<text x="24" y="551" font-family="Arial, sans-serif" font-size="12" fill="#222">interleaved.fastq.gz / file-direct-pack-seq-qual</text>
<rect x="310" y="538" width="459" height="18" fill="#1f766f"/>
<text x="777" y="551" font-family="Arial, sans-serif" font-size="12" fill="#222">0.42 Gbases/s</text>
<text x="24" y="581" font-family="Arial, sans-serif" font-size="12" fill="#222">interleaved.fastq.gz / file-reader-pack-seq-qual</text>
<rect x="310" y="568" width="506" height="18" fill="#1f766f"/>
<text x="824" y="581" font-family="Arial, sans-serif" font-size="12" fill="#222">0.46 Gbases/s</text>
<text x="24" y="611" font-family="Arial, sans-serif" font-size="12" fill="#222">interleaved.fastq.bgz / file-pack-seq-qual</text>
<rect x="310" y="598" width="562" height="18" fill="#1f766f"/>
<text x="880" y="611" font-family="Arial, sans-serif" font-size="12" fill="#222">0.51 Gbases/s</text>
<text x="24" y="641" font-family="Arial, sans-serif" font-size="12" fill="#222">interleaved.fastq.bgz / file-direct-pack-seq-qual</text>
<rect x="310" y="628" width="543" height="18" fill="#1f766f"/>
<text x="861" y="641" font-family="Arial, sans-serif" font-size="12" fill="#222">0.49 Gbases/s</text>
<text x="24" y="671" font-family="Arial, sans-serif" font-size="12" fill="#222">interleaved.fastq.bgz / file-reader-pack-seq-qual</text>
<rect x="310" y="658" width="621" height="18" fill="#1f766f"/>
<text x="939" y="671" font-family="Arial, sans-serif" font-size="12" fill="#222">0.56 Gbases/s</text>
<text x="24" y="701" font-family="Arial, sans-serif" font-size="12" fill="#222">interleaved.fastq.bgz / file-bgzf-adaptive-pack-seq-qual</text>
<rect x="310" y="688" width="617" height="18" fill="#1f766f"/>
<text x="935" y="701" font-family="Arial, sans-serif" font-size="12" fill="#222">0.56 Gbases/s</text>
<text x="24" y="731" font-family="Arial, sans-serif" font-size="12" fill="#222">interleaved.fastq.bgz / file-bgzf-libdeflate-serial-pack-seq-qual</text>
<rect x="310" y="718" width="535" height="18" fill="#1f766f"/>
<text x="853" y="731" font-family="Arial, sans-serif" font-size="12" fill="#222">0.48 Gbases/s</text>
<text x="24" y="761" font-family="Arial, sans-serif" font-size="12" fill="#222">interleaved.fastq.bgz / file-bgzf-libdeflate-adaptive-pack-seq-qual</text>
<rect x="310" y="748" width="602" height="18" fill="#1f766f"/>
<text x="920" y="761" font-family="Arial, sans-serif" font-size="12" fill="#222">0.54 Gbases/s</text>
<text x="24" y="791" font-family="Arial, sans-serif" font-size="12" fill="#222">r1.fastq / file-pack-seq-qual</text>
<rect x="310" y="778" width="612" height="18" fill="#1f766f"/>
<text x="930" y="791" font-family="Arial, sans-serif" font-size="12" fill="#222">0.55 Gbases/s</text>
<text x="24" y="821" font-family="Arial, sans-serif" font-size="12" fill="#222">r1.fastq / file-direct-pack-seq-qual</text>
<rect x="310" y="808" width="534" height="18" fill="#1f766f"/>
<text x="852" y="821" font-family="Arial, sans-serif" font-size="12" fill="#222">0.48 Gbases/s</text>
<text x="24" y="851" font-family="Arial, sans-serif" font-size="12" fill="#222">r1.fastq / file-reader-pack-seq-qual</text>
<rect x="310" y="838" width="604" height="18" fill="#1f766f"/>
<text x="922" y="851" font-family="Arial, sans-serif" font-size="12" fill="#222">0.55 Gbases/s</text>
<text x="24" y="881" font-family="Arial, sans-serif" font-size="12" fill="#222">r2.fastq / file-pack-seq-qual</text>
<rect x="310" y="868" width="604" height="18" fill="#1f766f"/>
<text x="922" y="881" font-family="Arial, sans-serif" font-size="12" fill="#222">0.55 Gbases/s</text>
<text x="24" y="911" font-family="Arial, sans-serif" font-size="12" fill="#222">r2.fastq / file-direct-pack-seq-qual</text>
<rect x="310" y="898" width="534" height="18" fill="#1f766f"/>
<text x="852" y="911" font-family="Arial, sans-serif" font-size="12" fill="#222">0.48 Gbases/s</text>
<text x="24" y="941" font-family="Arial, sans-serif" font-size="12" fill="#222">r2.fastq / file-reader-pack-seq-qual</text>
<rect x="310" y="928" width="606" height="18" fill="#1f766f"/>
<text x="924" y="941" font-family="Arial, sans-serif" font-size="12" fill="#222">0.55 Gbases/s</text>
<text x="24" y="971" font-family="Arial, sans-serif" font-size="12" fill="#222">r1.fastq+r2.fastq / file-paired-pack-seq-qual</text>
<rect x="310" y="958" width="615" height="18" fill="#1f766f"/>
<text x="933" y="971" font-family="Arial, sans-serif" font-size="12" fill="#222">0.56 Gbases/s</text>
<text x="24" y="1001" font-family="Arial, sans-serif" font-size="12" fill="#222">r1.fastq+r2.fastq / file-paired-trusted-pack-seq-qual</text>
<rect x="310" y="988" width="625" height="18" fill="#1f766f"/>
<text x="943" y="1001" font-family="Arial, sans-serif" font-size="12" fill="#222">0.56 Gbases/s</text>
<text x="24" y="1031" font-family="Arial, sans-serif" font-size="12" fill="#222">r1.fastq.gz+r2.fastq.gz / file-paired-pack-seq-qual</text>
<rect x="310" y="1018" width="517" height="18" fill="#1f766f"/>
<text x="835" y="1031" font-family="Arial, sans-serif" font-size="12" fill="#222">0.47 Gbases/s</text>
<text x="24" y="1061" font-family="Arial, sans-serif" font-size="12" fill="#222">r1.fastq.gz+r2.fastq.gz / file-paired-trusted-pack-seq-qual</text>
<rect x="310" y="1048" width="532" height="18" fill="#1f766f"/>
<text x="850" y="1061" font-family="Arial, sans-serif" font-size="12" fill="#222">0.48 Gbases/s</text>
<text x="24" y="1091" font-family="Arial, sans-serif" font-size="12" fill="#222">r1.fastq.bgz+r2.fastq.bgz / file-paired-pack-seq-qual</text>
<rect x="310" y="1078" width="622" height="18" fill="#1f766f"/>
<text x="940" y="1091" font-family="Arial, sans-serif" font-size="12" fill="#222">0.56 Gbases/s</text>
<text x="24" y="1121" font-family="Arial, sans-serif" font-size="12" fill="#222">r1.fastq.bgz+r2.fastq.bgz / file-paired-trusted-pack-seq-qual</text>
<rect x="310" y="1108" width="650" height="18" fill="#1f766f"/>
<text x="968" y="1121" font-family="Arial, sans-serif" font-size="12" fill="#222">0.59 Gbases/s</text>
<text x="24" y="1151" font-family="Arial, sans-serif" font-size="12" fill="#222">r1.100000.fq+r2.100000.fq / file-paired-pack-seq-qual</text>
<rect x="310" y="1138" width="145" height="18" fill="#1f766f"/>
<text x="463" y="1151" font-family="Arial, sans-serif" font-size="12" fill="#222">0.13 Gbases/s</text>
<text x="24" y="1181" font-family="Arial, sans-serif" font-size="12" fill="#222">r1.100000.fq+r2.100000.fq / file-paired-trusted-pack-seq-qual</text>
<rect x="310" y="1168" width="149" height="18" fill="#1f766f"/>
<text x="467" y="1181" font-family="Arial, sans-serif" font-size="12" fill="#222">0.13 Gbases/s</text>
<text x="24" y="1211" font-family="Arial, sans-serif" font-size="12" fill="#222">r1.10000.fq+r2.10000.fq / file-paired-pack-seq-qual</text>
<rect x="310" y="1198" width="163" height="18" fill="#1f766f"/>
<text x="481" y="1211" font-family="Arial, sans-serif" font-size="12" fill="#222">0.15 Gbases/s</text>
<text x="24" y="1241" font-family="Arial, sans-serif" font-size="12" fill="#222">r1.10000.fq+r2.10000.fq / file-paired-trusted-pack-seq-qual</text>
<rect x="310" y="1228" width="165" height="18" fill="#1f766f"/>
<text x="483" y="1241" font-family="Arial, sans-serif" font-size="12" fill="#222">0.15 Gbases/s</text>
</svg>
