<svg xmlns="http://www.w3.org/2000/svg" width="880" height="408" viewBox="0 0 880 408">
<rect width="100%" height="100%" fill="white"/>
<text x="24" y="28" font-family="Arial, sans-serif" font-size="18" font-weight="700">Rust FASTA parser peer throughput</text>
<text x="24" y="46" font-family="Arial, sans-serif" font-size="12" fill="#555">bases/s over the same in-memory FASTA byte buffer</text>
<text x="24" y="76" font-family="Arial, sans-serif" font-size="12" fill="#222">microraptor-resident-visitor</text>
<rect x="190" y="61" width="375" height="20" fill="#23645b"/>
<text x="573" y="76" font-family="Arial, sans-serif" font-size="12" fill="#222">8.76 Gbases/s</text>
<text x="24" y="110" font-family="Arial, sans-serif" font-size="12" fill="#222">microraptor-two-line-resident-visitor</text>
<rect x="190" y="95" width="415" height="20" fill="#23645b"/>
<text x="613" y="110" font-family="Arial, sans-serif" font-size="12" fill="#222">9.70 Gbases/s</text>
<text x="24" y="144" font-family="Arial, sans-serif" font-size="12" fill="#222">microraptor-two-line-resident-counter</text>
<rect x="190" y="129" width="500" height="20" fill="#23645b"/>
<text x="698" y="144" font-family="Arial, sans-serif" font-size="12" fill="#222">11.66 Gbases/s</text>
<text x="24" y="178" font-family="Arial, sans-serif" font-size="12" fill="#222">microraptor-two-line-stream-visitor</text>
<rect x="190" y="163" width="324" height="20" fill="#23645b"/>
<text x="522" y="178" font-family="Arial, sans-serif" font-size="12" fill="#222">7.57 Gbases/s</text>
<text x="24" y="212" font-family="Arial, sans-serif" font-size="12" fill="#222">microraptor-two-line-stream-counter</text>
<rect x="190" y="197" width="380" height="20" fill="#23645b"/>
<text x="578" y="212" font-family="Arial, sans-serif" font-size="12" fill="#222">8.88 Gbases/s</text>
<text x="24" y="246" font-family="Arial, sans-serif" font-size="12" fill="#222">microraptor-stream</text>
<rect x="190" y="231" width="141" height="20" fill="#23645b"/>
<text x="339" y="246" font-family="Arial, sans-serif" font-size="12" fill="#222">3.29 Gbases/s</text>
<text x="24" y="280" font-family="Arial, sans-serif" font-size="12" fill="#222">microraptor-stream-visitor</text>
<rect x="190" y="265" width="139" height="20" fill="#23645b"/>
<text x="337" y="280" font-family="Arial, sans-serif" font-size="12" fill="#222">3.25 Gbases/s</text>
<text x="24" y="314" font-family="Arial, sans-serif" font-size="12" fill="#222">seq_io</text>
<rect x="190" y="299" width="432" height="20" fill="#23645b"/>
<text x="630" y="314" font-family="Arial, sans-serif" font-size="12" fill="#222">10.09 Gbases/s</text>
<text x="24" y="348" font-family="Arial, sans-serif" font-size="12" fill="#222">bio</text>
<rect x="190" y="333" width="107" height="20" fill="#23645b"/>
<text x="305" y="348" font-family="Arial, sans-serif" font-size="12" fill="#222">2.50 Gbases/s</text>
</svg>
