<svg xmlns="http://www.w3.org/2000/svg" width="880" height="510" viewBox="0 0 880 510">
<rect width="100%" height="100%" fill="white"/>
<text x="24" y="28" font-family="Arial, sans-serif" font-size="18" font-weight="700">Rust FASTA parser peer throughput</text>
<text x="24" y="46" font-family="Arial, sans-serif" font-size="12" fill="#555">bases/s over the same in-memory FASTA byte buffer</text>
<text x="24" y="76" font-family="Arial, sans-serif" font-size="12" fill="#222">microraptor-resident-visitor</text>
<rect x="190" y="61" width="340" height="20" fill="#23645b"/>
<text x="538" y="76" font-family="Arial, sans-serif" font-size="12" fill="#222">3.17 Gbases/s</text>
<text x="24" y="110" font-family="Arial, sans-serif" font-size="12" fill="#222">microraptor-libdeflate-resident-visitor</text>
<rect x="190" y="95" width="445" height="20" fill="#23645b"/>
<text x="643" y="110" font-family="Arial, sans-serif" font-size="12" fill="#222">4.14 Gbases/s</text>
<text x="24" y="144" font-family="Arial, sans-serif" font-size="12" fill="#222">microraptor-libdeflate-two-line-visitor</text>
<rect x="190" y="129" width="463" height="20" fill="#23645b"/>
<text x="661" y="144" font-family="Arial, sans-serif" font-size="12" fill="#222">4.31 Gbases/s</text>
<text x="24" y="178" font-family="Arial, sans-serif" font-size="12" fill="#222">microraptor-libdeflate-two-line-counter</text>
<rect x="190" y="163" width="479" height="20" fill="#23645b"/>
<text x="677" y="178" font-family="Arial, sans-serif" font-size="12" fill="#222">4.46 Gbases/s</text>
<text x="24" y="212" font-family="Arial, sans-serif" font-size="12" fill="#222">microraptor-two-line-resident-visitor</text>
<rect x="190" y="197" width="354" height="20" fill="#23645b"/>
<text x="552" y="212" font-family="Arial, sans-serif" font-size="12" fill="#222">3.30 Gbases/s</text>
<text x="24" y="246" font-family="Arial, sans-serif" font-size="12" fill="#222">microraptor-two-line-resident-counter</text>
<rect x="190" y="231" width="367" height="20" fill="#23645b"/>
<text x="565" y="246" font-family="Arial, sans-serif" font-size="12" fill="#222">3.42 Gbases/s</text>
<text x="24" y="280" font-family="Arial, sans-serif" font-size="12" fill="#222">microraptor-two-line-stream-visitor</text>
<rect x="190" y="265" width="429" height="20" fill="#23645b"/>
<text x="627" y="280" font-family="Arial, sans-serif" font-size="12" fill="#222">4.00 Gbases/s</text>
<text x="24" y="314" font-family="Arial, sans-serif" font-size="12" fill="#222">microraptor-two-line-stream-counter</text>
<rect x="190" y="299" width="477" height="20" fill="#23645b"/>
<text x="675" y="314" font-family="Arial, sans-serif" font-size="12" fill="#222">4.44 Gbases/s</text>
<text x="24" y="348" font-family="Arial, sans-serif" font-size="12" fill="#222">microraptor-stream</text>
<rect x="190" y="333" width="262" height="20" fill="#23645b"/>
<text x="460" y="348" font-family="Arial, sans-serif" font-size="12" fill="#222">2.44 Gbases/s</text>
<text x="24" y="382" font-family="Arial, sans-serif" font-size="12" fill="#222">microraptor-stream-visitor</text>
<rect x="190" y="367" width="249" height="20" fill="#23645b"/>
<text x="447" y="382" font-family="Arial, sans-serif" font-size="12" fill="#222">2.32 Gbases/s</text>
<text x="24" y="416" font-family="Arial, sans-serif" font-size="12" fill="#222">seq_io</text>
<rect x="190" y="401" width="500" height="20" fill="#23645b"/>
<text x="698" y="416" font-family="Arial, sans-serif" font-size="12" fill="#222">4.65 Gbases/s</text>
<text x="24" y="450" font-family="Arial, sans-serif" font-size="12" fill="#222">bio</text>
<rect x="190" y="435" width="207" height="20" fill="#23645b"/>
<text x="405" y="450" font-family="Arial, sans-serif" font-size="12" fill="#222">1.93 Gbases/s</text>
</svg>
