<svg xmlns="http://www.w3.org/2000/svg" width="880" height="510" viewBox="0 0 880 510">
<rect width="100%" height="100%" fill="white"/>
<text x="24" y="28" font-family="Arial, sans-serif" font-size="18" font-weight="700">Rust FASTA parser peer throughput</text>
<text x="24" y="46" font-family="Arial, sans-serif" font-size="12" fill="#555">bases/s over the same in-memory FASTA byte buffer</text>
<text x="24" y="76" font-family="Arial, sans-serif" font-size="12" fill="#222">microraptor-resident-visitor</text>
<rect x="190" y="61" width="237" height="20" fill="#23645b"/>
<text x="435" y="76" font-family="Arial, sans-serif" font-size="12" fill="#222">3.61 Gbases/s</text>
<text x="24" y="110" font-family="Arial, sans-serif" font-size="12" fill="#222">microraptor-libdeflate-resident-visitor</text>
<rect x="190" y="95" width="405" height="20" fill="#23645b"/>
<text x="603" y="110" font-family="Arial, sans-serif" font-size="12" fill="#222">6.18 Gbases/s</text>
<text x="24" y="144" font-family="Arial, sans-serif" font-size="12" fill="#222">microraptor-libdeflate-two-line-visitor</text>
<rect x="190" y="129" width="436" height="20" fill="#23645b"/>
<text x="634" y="144" font-family="Arial, sans-serif" font-size="12" fill="#222">6.63 Gbases/s</text>
<text x="24" y="178" font-family="Arial, sans-serif" font-size="12" fill="#222">microraptor-libdeflate-two-line-counter</text>
<rect x="190" y="163" width="500" height="20" fill="#23645b"/>
<text x="698" y="178" font-family="Arial, sans-serif" font-size="12" fill="#222">7.61 Gbases/s</text>
<text x="24" y="212" font-family="Arial, sans-serif" font-size="12" fill="#222">microraptor-two-line-resident-visitor</text>
<rect x="190" y="197" width="266" height="20" fill="#23645b"/>
<text x="464" y="212" font-family="Arial, sans-serif" font-size="12" fill="#222">4.06 Gbases/s</text>
<text x="24" y="246" font-family="Arial, sans-serif" font-size="12" fill="#222">microraptor-two-line-resident-counter</text>
<rect x="190" y="231" width="285" height="20" fill="#23645b"/>
<text x="483" y="246" font-family="Arial, sans-serif" font-size="12" fill="#222">4.35 Gbases/s</text>
<text x="24" y="280" font-family="Arial, sans-serif" font-size="12" fill="#222">microraptor-two-line-stream-visitor</text>
<rect x="190" y="265" width="261" height="20" fill="#23645b"/>
<text x="459" y="280" font-family="Arial, sans-serif" font-size="12" fill="#222">3.98 Gbases/s</text>
<text x="24" y="314" font-family="Arial, sans-serif" font-size="12" fill="#222">microraptor-two-line-stream-counter</text>
<rect x="190" y="299" width="283" height="20" fill="#23645b"/>
<text x="481" y="314" font-family="Arial, sans-serif" font-size="12" fill="#222">4.31 Gbases/s</text>
<text x="24" y="348" font-family="Arial, sans-serif" font-size="12" fill="#222">microraptor-stream</text>
<rect x="190" y="333" width="159" height="20" fill="#23645b"/>
<text x="357" y="348" font-family="Arial, sans-serif" font-size="12" fill="#222">2.42 Gbases/s</text>
<text x="24" y="382" font-family="Arial, sans-serif" font-size="12" fill="#222">microraptor-stream-visitor</text>
<rect x="190" y="367" width="160" height="20" fill="#23645b"/>
<text x="358" y="382" font-family="Arial, sans-serif" font-size="12" fill="#222">2.44 Gbases/s</text>
<text x="24" y="416" font-family="Arial, sans-serif" font-size="12" fill="#222">seq_io</text>
<rect x="190" y="401" width="311" height="20" fill="#23645b"/>
<text x="509" y="416" font-family="Arial, sans-serif" font-size="12" fill="#222">4.73 Gbases/s</text>
<text x="24" y="450" font-family="Arial, sans-serif" font-size="12" fill="#222">bio</text>
<rect x="190" y="435" width="129" height="20" fill="#23645b"/>
<text x="327" y="450" font-family="Arial, sans-serif" font-size="12" fill="#222">1.98 Gbases/s</text>
</svg>
