<svg xmlns="http://www.w3.org/2000/svg" width="880" height="510" viewBox="0 0 880 510">
<rect width="100%" height="100%" fill="white"/>
<text x="24" y="28" font-family="Arial, sans-serif" font-size="18" font-weight="700">Rust FASTA parser peer throughput</text>
<text x="24" y="46" font-family="Arial, sans-serif" font-size="12" fill="#555">bases/s over the same in-memory FASTA byte buffer</text>
<text x="24" y="76" font-family="Arial, sans-serif" font-size="12" fill="#222">microraptor-resident-visitor</text>
<rect x="190" y="61" width="265" height="20" fill="#23645b"/>
<text x="463" y="76" font-family="Arial, sans-serif" font-size="12" fill="#222">2.68 Gbases/s</text>
<text x="24" y="110" font-family="Arial, sans-serif" font-size="12" fill="#222">microraptor-libdeflate-resident-visitor</text>
<rect x="190" y="95" width="404" height="20" fill="#23645b"/>
<text x="602" y="110" font-family="Arial, sans-serif" font-size="12" fill="#222">4.07 Gbases/s</text>
<text x="24" y="144" font-family="Arial, sans-serif" font-size="12" fill="#222">microraptor-libdeflate-two-line-visitor</text>
<rect x="190" y="129" width="435" height="20" fill="#23645b"/>
<text x="633" y="144" font-family="Arial, sans-serif" font-size="12" fill="#222">4.38 Gbases/s</text>
<text x="24" y="178" font-family="Arial, sans-serif" font-size="12" fill="#222">microraptor-libdeflate-two-line-counter</text>
<rect x="190" y="163" width="500" height="20" fill="#23645b"/>
<text x="698" y="178" font-family="Arial, sans-serif" font-size="12" fill="#222">5.04 Gbases/s</text>
<text x="24" y="212" font-family="Arial, sans-serif" font-size="12" fill="#222">microraptor-two-line-resident-visitor</text>
<rect x="190" y="197" width="278" height="20" fill="#23645b"/>
<text x="476" y="212" font-family="Arial, sans-serif" font-size="12" fill="#222">2.81 Gbases/s</text>
<text x="24" y="246" font-family="Arial, sans-serif" font-size="12" fill="#222">microraptor-two-line-resident-counter</text>
<rect x="190" y="231" width="305" height="20" fill="#23645b"/>
<text x="503" y="246" font-family="Arial, sans-serif" font-size="12" fill="#222">3.08 Gbases/s</text>
<text x="24" y="280" font-family="Arial, sans-serif" font-size="12" fill="#222">microraptor-two-line-stream-visitor</text>
<rect x="190" y="265" width="269" height="20" fill="#23645b"/>
<text x="467" y="280" font-family="Arial, sans-serif" font-size="12" fill="#222">2.71 Gbases/s</text>
<text x="24" y="314" font-family="Arial, sans-serif" font-size="12" fill="#222">microraptor-two-line-stream-counter</text>
<rect x="190" y="299" width="291" height="20" fill="#23645b"/>
<text x="489" y="314" font-family="Arial, sans-serif" font-size="12" fill="#222">2.94 Gbases/s</text>
<text x="24" y="348" font-family="Arial, sans-serif" font-size="12" fill="#222">microraptor-stream</text>
<rect x="190" y="333" width="163" height="20" fill="#23645b"/>
<text x="361" y="348" font-family="Arial, sans-serif" font-size="12" fill="#222">1.64 Gbases/s</text>
<text x="24" y="382" font-family="Arial, sans-serif" font-size="12" fill="#222">microraptor-stream-visitor</text>
<rect x="190" y="367" width="164" height="20" fill="#23645b"/>
<text x="362" y="382" font-family="Arial, sans-serif" font-size="12" fill="#222">1.66 Gbases/s</text>
<text x="24" y="416" font-family="Arial, sans-serif" font-size="12" fill="#222">seq_io</text>
<rect x="190" y="401" width="306" height="20" fill="#23645b"/>
<text x="504" y="416" font-family="Arial, sans-serif" font-size="12" fill="#222">3.09 Gbases/s</text>
<text x="24" y="450" font-family="Arial, sans-serif" font-size="12" fill="#222">bio</text>
<rect x="190" y="435" width="133" height="20" fill="#23645b"/>
<text x="331" y="450" font-family="Arial, sans-serif" font-size="12" fill="#222">1.34 Gbases/s</text>
</svg>
