<svg xmlns="http://www.w3.org/2000/svg" width="980" height="620" viewBox="0 0 980 620">
<rect width="100%" height="100%" fill="white"/>
<text x="28" y="32" font-family="Arial, sans-serif" font-size="20" font-weight="700">FASTA parser framework size sweep</text>
<text x="28" y="54" font-family="Arial, sans-serif" font-size="12" fill="#555">Best wall time over synthetic FASTA inputs; lower is better</text>
<line x1="88" y1="534" x2="946" y2="534" stroke="#222"/>
<line x1="88" y1="70" x2="88" y2="534" stroke="#222"/>
<line x1="88" y1="534.0" x2="946" y2="534.0" stroke="#e6e6e6"/>
<text x="80" y="538.0" font-family="Arial, sans-serif" font-size="11" text-anchor="end" fill="#555">0 ms</text>
<line x1="88" y1="418.0" x2="946" y2="418.0" stroke="#e6e6e6"/>
<text x="80" y="422.0" font-family="Arial, sans-serif" font-size="11" text-anchor="end" fill="#555">21 ms</text>
<line x1="88" y1="302.0" x2="946" y2="302.0" stroke="#e6e6e6"/>
<text x="80" y="306.0" font-family="Arial, sans-serif" font-size="11" text-anchor="end" fill="#555">43 ms</text>
<line x1="88" y1="186.0" x2="946" y2="186.0" stroke="#e6e6e6"/>
<text x="80" y="190.0" font-family="Arial, sans-serif" font-size="11" text-anchor="end" fill="#555">64 ms</text>
<line x1="88" y1="70.0" x2="946" y2="70.0" stroke="#e6e6e6"/>
<text x="80" y="74.0" font-family="Arial, sans-serif" font-size="11" text-anchor="end" fill="#555">85 ms</text>
<line x1="88.0" y1="70" x2="88.0" y2="534" stroke="#e6e6e6"/>
<text x="88.0" y="556" font-family="Arial, sans-serif" font-size="11" text-anchor="middle" fill="#555">0 MB</text>
<line x1="302.5" y1="70" x2="302.5" y2="534" stroke="#e6e6e6"/>
<text x="302.5" y="556" font-family="Arial, sans-serif" font-size="11" text-anchor="middle" fill="#555">40 MB</text>
<line x1="517.0" y1="70" x2="517.0" y2="534" stroke="#e6e6e6"/>
<text x="517.0" y="556" font-family="Arial, sans-serif" font-size="11" text-anchor="middle" fill="#555">80 MB</text>
<line x1="731.5" y1="70" x2="731.5" y2="534" stroke="#e6e6e6"/>
<text x="731.5" y="556" font-family="Arial, sans-serif" font-size="11" text-anchor="middle" fill="#555">120 MB</text>
<line x1="946.0" y1="70" x2="946.0" y2="534" stroke="#e6e6e6"/>
<text x="946.0" y="556" font-family="Arial, sans-serif" font-size="11" text-anchor="middle" fill="#555">160 MB</text>
<path d="M 96.5 532.6 L 130.6 529.4 L 173.3 520.6 L 516.7 487.2 L 946.0 443.0" fill="none" stroke="#1f5a85" stroke-width="2.5"/>
<circle cx="96.5" cy="532.6" r="4" fill="#1f5a85"/>
<circle cx="130.6" cy="529.4" r="4" fill="#1f5a85"/>
<circle cx="173.3" cy="520.6" r="4" fill="#1f5a85"/>
<circle cx="516.7" cy="487.2" r="4" fill="#1f5a85"/>
<circle cx="946.0" cy="443.0" r="4" fill="#1f5a85"/>
<line x1="726" y1="84" x2="750" y2="84" stroke="#1f5a85" stroke-width="3"/>
<text x="758" y="88" font-family="Arial, sans-serif" font-size="12" fill="#222">raw/microraptor-resident-visitor</text>
<path d="M 96.5 532.8 L 130.6 529.8 L 173.3 522.1 L 516.7 491.2 L 946.0 449.0" fill="none" stroke="#00866a" stroke-width="2.5"/>
<circle cx="96.5" cy="532.8" r="4" fill="#00866a"/>
<circle cx="130.6" cy="529.8" r="4" fill="#00866a"/>
<circle cx="173.3" cy="522.1" r="4" fill="#00866a"/>
<circle cx="516.7" cy="491.2" r="4" fill="#00866a"/>
<circle cx="946.0" cy="449.0" r="4" fill="#00866a"/>
<line x1="726" y1="106" x2="750" y2="106" stroke="#00866a" stroke-width="3"/>
<text x="758" y="110" font-family="Arial, sans-serif" font-size="12" fill="#222">raw/microraptor-two-line-resident-visitor</text>
<path d="M 96.5 533.0 L 130.6 530.5 L 173.3 524.3 L 516.7 498.6 L 946.0 459.3" fill="none" stroke="#8a4f00" stroke-width="2.5"/>
<circle cx="96.5" cy="533.0" r="4" fill="#8a4f00"/>
<circle cx="130.6" cy="530.5" r="4" fill="#8a4f00"/>
<circle cx="173.3" cy="524.3" r="4" fill="#8a4f00"/>
<circle cx="516.7" cy="498.6" r="4" fill="#8a4f00"/>
<circle cx="946.0" cy="459.3" r="4" fill="#8a4f00"/>
<line x1="726" y1="128" x2="750" y2="128" stroke="#8a4f00" stroke-width="3"/>
<text x="758" y="132" font-family="Arial, sans-serif" font-size="12" fill="#222">raw/microraptor-two-line-resident-counter</text>
<path d="M 96.5 532.4 L 130.6 528.6 L 173.3 515.8 L 516.7 468.8 L 946.0 390.1" fill="none" stroke="#7a3f87" stroke-width="2.5"/>
<circle cx="96.5" cy="532.4" r="4" fill="#7a3f87"/>
<circle cx="130.6" cy="528.6" r="4" fill="#7a3f87"/>
<circle cx="173.3" cy="515.8" r="4" fill="#7a3f87"/>
<circle cx="516.7" cy="468.8" r="4" fill="#7a3f87"/>
<circle cx="946.0" cy="390.1" r="4" fill="#7a3f87"/>
<line x1="726" y1="150" x2="750" y2="150" stroke="#7a3f87" stroke-width="3"/>
<text x="758" y="154" font-family="Arial, sans-serif" font-size="12" fill="#222">raw/microraptor-two-line-stream-visitor</text>
<path d="M 96.5 532.6 L 130.6 529.4 L 173.3 518.2 L 516.7 474.9 L 946.0 407.3" fill="none" stroke="#4d5f00" stroke-width="2.5"/>
<circle cx="96.5" cy="532.6" r="4" fill="#4d5f00"/>
<circle cx="130.6" cy="529.4" r="4" fill="#4d5f00"/>
<circle cx="173.3" cy="518.2" r="4" fill="#4d5f00"/>
<circle cx="516.7" cy="474.9" r="4" fill="#4d5f00"/>
<circle cx="946.0" cy="407.3" r="4" fill="#4d5f00"/>
<line x1="726" y1="172" x2="750" y2="172" stroke="#4d5f00" stroke-width="3"/>
<text x="758" y="176" font-family="Arial, sans-serif" font-size="12" fill="#222">raw/microraptor-two-line-stream-counter</text>
<path d="M 96.5 530.4 L 130.6 521.6 L 173.3 506.8 L 516.7 381.7 L 946.0 256.2" fill="none" stroke="#a23b3b" stroke-width="2.5"/>
<circle cx="96.5" cy="530.4" r="4" fill="#a23b3b"/>
<circle cx="130.6" cy="521.6" r="4" fill="#a23b3b"/>
<circle cx="173.3" cy="506.8" r="4" fill="#a23b3b"/>
<circle cx="516.7" cy="381.7" r="4" fill="#a23b3b"/>
<circle cx="946.0" cy="256.2" r="4" fill="#a23b3b"/>
<line x1="726" y1="194" x2="750" y2="194" stroke="#a23b3b" stroke-width="3"/>
<text x="758" y="198" font-family="Arial, sans-serif" font-size="12" fill="#222">raw/microraptor-stream</text>
<path d="M 96.5 530.5 L 130.6 521.5 L 173.3 505.9 L 516.7 384.4 L 946.0 223.4" fill="none" stroke="#1f5a85" stroke-width="2.5"/>
<circle cx="96.5" cy="530.5" r="4" fill="#1f5a85"/>
<circle cx="130.6" cy="521.5" r="4" fill="#1f5a85"/>
<circle cx="173.3" cy="505.9" r="4" fill="#1f5a85"/>
<circle cx="516.7" cy="384.4" r="4" fill="#1f5a85"/>
<circle cx="946.0" cy="223.4" r="4" fill="#1f5a85"/>
<line x1="726" y1="216" x2="750" y2="216" stroke="#1f5a85" stroke-width="3"/>
<text x="758" y="220" font-family="Arial, sans-serif" font-size="12" fill="#222">raw/microraptor-stream-visitor</text>
<path d="M 96.5 532.8 L 130.6 530.0 L 173.3 523.6 L 516.7 482.6 L 946.0 417.0" fill="none" stroke="#00866a" stroke-width="2.5"/>
<circle cx="96.5" cy="532.8" r="4" fill="#00866a"/>
<circle cx="130.6" cy="530.0" r="4" fill="#00866a"/>
<circle cx="173.3" cy="523.6" r="4" fill="#00866a"/>
<circle cx="516.7" cy="482.6" r="4" fill="#00866a"/>
<circle cx="946.0" cy="417.0" r="4" fill="#00866a"/>
<line x1="726" y1="238" x2="750" y2="238" stroke="#00866a" stroke-width="3"/>
<text x="758" y="242" font-family="Arial, sans-serif" font-size="12" fill="#222">raw/seq_io</text>
<path d="M 96.5 529.3 L 130.6 517.7 L 173.3 495.0 L 516.7 337.9 L 946.0 70.0" fill="none" stroke="#8a4f00" stroke-width="2.5"/>
<circle cx="96.5" cy="529.3" r="4" fill="#8a4f00"/>
<circle cx="130.6" cy="517.7" r="4" fill="#8a4f00"/>
<circle cx="173.3" cy="495.0" r="4" fill="#8a4f00"/>
<circle cx="516.7" cy="337.9" r="4" fill="#8a4f00"/>
<circle cx="946.0" cy="70.0" r="4" fill="#8a4f00"/>
<line x1="726" y1="260" x2="750" y2="260" stroke="#8a4f00" stroke-width="3"/>
<text x="758" y="264" font-family="Arial, sans-serif" font-size="12" fill="#222">raw/bio</text>
<path d="M 88.2 531.0 L 88.8 522.7 L 89.6 498.8 L 96.0 405.6 L 103.9 274.5" fill="none" stroke="#7a3f87" stroke-width="2.5"/>
<circle cx="88.2" cy="531.0" r="4" fill="#7a3f87"/>
<circle cx="88.8" cy="522.7" r="4" fill="#7a3f87"/>
<circle cx="89.6" cy="498.8" r="4" fill="#7a3f87"/>
<circle cx="96.0" cy="405.6" r="4" fill="#7a3f87"/>
<circle cx="103.9" cy="274.5" r="4" fill="#7a3f87"/>
<line x1="726" y1="282" x2="750" y2="282" stroke="#7a3f87" stroke-width="3"/>
<text x="758" y="286" font-family="Arial, sans-serif" font-size="12" fill="#222">gzip/microraptor-resident-visitor</text>
<path d="M 88.2 532.0 L 88.8 527.4 L 89.6 517.9 L 96.0 435.7 L 103.9 328.3" fill="none" stroke="#4d5f00" stroke-width="2.5"/>
<circle cx="88.2" cy="532.0" r="4" fill="#4d5f00"/>
<circle cx="88.8" cy="527.4" r="4" fill="#4d5f00"/>
<circle cx="89.6" cy="517.9" r="4" fill="#4d5f00"/>
<circle cx="96.0" cy="435.7" r="4" fill="#4d5f00"/>
<circle cx="103.9" cy="328.3" r="4" fill="#4d5f00"/>
<line x1="726" y1="304" x2="750" y2="304" stroke="#4d5f00" stroke-width="3"/>
<text x="758" y="308" font-family="Arial, sans-serif" font-size="12" fill="#222">gzip/microraptor-libdeflate-resident-visitor</text>
<path d="M 88.2 532.1 L 88.8 527.9 L 89.6 519.9 L 96.0 439.5 L 103.9 354.8" fill="none" stroke="#a23b3b" stroke-width="2.5"/>
<circle cx="88.2" cy="532.1" r="4" fill="#a23b3b"/>
<circle cx="88.8" cy="527.9" r="4" fill="#a23b3b"/>
<circle cx="89.6" cy="519.9" r="4" fill="#a23b3b"/>
<circle cx="96.0" cy="439.5" r="4" fill="#a23b3b"/>
<circle cx="103.9" cy="354.8" r="4" fill="#a23b3b"/>
<line x1="726" y1="326" x2="750" y2="326" stroke="#a23b3b" stroke-width="3"/>
<text x="758" y="330" font-family="Arial, sans-serif" font-size="12" fill="#222">gzip/microraptor-libdeflate-two-line-visitor</text>
<path d="M 88.2 532.4 L 88.8 528.6 L 89.6 521.5 L 96.0 442.7 L 103.9 384.3" fill="none" stroke="#1f5a85" stroke-width="2.5"/>
<circle cx="88.2" cy="532.4" r="4" fill="#1f5a85"/>
<circle cx="88.8" cy="528.6" r="4" fill="#1f5a85"/>
<circle cx="89.6" cy="521.5" r="4" fill="#1f5a85"/>
<circle cx="96.0" cy="442.7" r="4" fill="#1f5a85"/>
<circle cx="103.9" cy="384.3" r="4" fill="#1f5a85"/>
<line x1="726" y1="348" x2="750" y2="348" stroke="#1f5a85" stroke-width="3"/>
<text x="758" y="352" font-family="Arial, sans-serif" font-size="12" fill="#222">gzip/microraptor-libdeflate-two-line-counter</text>
<path d="M 88.2 531.1 L 88.8 524.0 L 89.6 510.5 L 96.0 410.6 L 103.9 273.2" fill="none" stroke="#00866a" stroke-width="2.5"/>
<circle cx="88.2" cy="531.1" r="4" fill="#00866a"/>
<circle cx="88.8" cy="524.0" r="4" fill="#00866a"/>
<circle cx="89.6" cy="510.5" r="4" fill="#00866a"/>
<circle cx="96.0" cy="410.6" r="4" fill="#00866a"/>
<circle cx="103.9" cy="273.2" r="4" fill="#00866a"/>
<line x1="726" y1="370" x2="750" y2="370" stroke="#00866a" stroke-width="3"/>
<text x="758" y="374" font-family="Arial, sans-serif" font-size="12" fill="#222">gzip/microraptor-two-line-resident-visitor</text>
<path d="M 88.2 531.4 L 88.8 524.6 L 89.6 514.8 L 96.0 414.9 L 103.9 282.9" fill="none" stroke="#8a4f00" stroke-width="2.5"/>
<circle cx="88.2" cy="531.4" r="4" fill="#8a4f00"/>
<circle cx="88.8" cy="524.6" r="4" fill="#8a4f00"/>
<circle cx="89.6" cy="514.8" r="4" fill="#8a4f00"/>
<circle cx="96.0" cy="414.9" r="4" fill="#8a4f00"/>
<circle cx="103.9" cy="282.9" r="4" fill="#8a4f00"/>
<line x1="726" y1="392" x2="750" y2="392" stroke="#8a4f00" stroke-width="3"/>
<text x="758" y="396" font-family="Arial, sans-serif" font-size="12" fill="#222">gzip/microraptor-two-line-resident-counter</text>
<path d="M 88.2 531.0 L 88.8 523.8 L 89.6 513.8 L 96.0 432.1 L 103.9 328.7" fill="none" stroke="#7a3f87" stroke-width="2.5"/>
<circle cx="88.2" cy="531.0" r="4" fill="#7a3f87"/>
<circle cx="88.8" cy="523.8" r="4" fill="#7a3f87"/>
<circle cx="89.6" cy="513.8" r="4" fill="#7a3f87"/>
<circle cx="96.0" cy="432.1" r="4" fill="#7a3f87"/>
<circle cx="103.9" cy="328.7" r="4" fill="#7a3f87"/>
<line x1="726" y1="414" x2="750" y2="414" stroke="#7a3f87" stroke-width="3"/>
<text x="758" y="418" font-family="Arial, sans-serif" font-size="12" fill="#222">gzip/microraptor-two-line-stream-visitor</text>
<path d="M 88.2 531.2 L 88.8 524.5 L 89.6 515.3 L 96.0 442.3 L 103.9 348.8" fill="none" stroke="#4d5f00" stroke-width="2.5"/>
<circle cx="88.2" cy="531.2" r="4" fill="#4d5f00"/>
<circle cx="88.8" cy="524.5" r="4" fill="#4d5f00"/>
<circle cx="89.6" cy="515.3" r="4" fill="#4d5f00"/>
<circle cx="96.0" cy="442.3" r="4" fill="#4d5f00"/>
<circle cx="103.9" cy="348.8" r="4" fill="#4d5f00"/>
<line x1="726" y1="436" x2="750" y2="436" stroke="#4d5f00" stroke-width="3"/>
<text x="758" y="440" font-family="Arial, sans-serif" font-size="12" fill="#222">gzip/microraptor-two-line-stream-counter</text>
<path d="M 88.2 529.0 L 88.8 517.2 L 89.6 500.0 L 96.0 367.1 L 103.9 199.9" fill="none" stroke="#a23b3b" stroke-width="2.5"/>
<circle cx="88.2" cy="529.0" r="4" fill="#a23b3b"/>
<circle cx="88.8" cy="517.2" r="4" fill="#a23b3b"/>
<circle cx="89.6" cy="500.0" r="4" fill="#a23b3b"/>
<circle cx="96.0" cy="367.1" r="4" fill="#a23b3b"/>
<circle cx="103.9" cy="199.9" r="4" fill="#a23b3b"/>
<line x1="726" y1="458" x2="750" y2="458" stroke="#a23b3b" stroke-width="3"/>
<text x="758" y="462" font-family="Arial, sans-serif" font-size="12" fill="#222">gzip/microraptor-stream</text>
<path d="M 88.2 529.1 L 88.8 517.3 L 89.6 498.4 L 96.0 358.4 L 103.9 186.5" fill="none" stroke="#1f5a85" stroke-width="2.5"/>
<circle cx="88.2" cy="529.1" r="4" fill="#1f5a85"/>
<circle cx="88.8" cy="517.3" r="4" fill="#1f5a85"/>
<circle cx="89.6" cy="498.4" r="4" fill="#1f5a85"/>
<circle cx="96.0" cy="358.4" r="4" fill="#1f5a85"/>
<circle cx="103.9" cy="186.5" r="4" fill="#1f5a85"/>
<line x1="726" y1="480" x2="750" y2="480" stroke="#1f5a85" stroke-width="3"/>
<text x="758" y="484" font-family="Arial, sans-serif" font-size="12" fill="#222">gzip/microraptor-stream-visitor</text>
<path d="M 88.2 531.4 L 88.8 525.4 L 89.6 515.3 L 96.0 446.5 L 103.9 365.1" fill="none" stroke="#00866a" stroke-width="2.5"/>
<circle cx="88.2" cy="531.4" r="4" fill="#00866a"/>
<circle cx="88.8" cy="525.4" r="4" fill="#00866a"/>
<circle cx="89.6" cy="515.3" r="4" fill="#00866a"/>
<circle cx="96.0" cy="446.5" r="4" fill="#00866a"/>
<circle cx="103.9" cy="365.1" r="4" fill="#00866a"/>
<line x1="726" y1="502" x2="750" y2="502" stroke="#00866a" stroke-width="3"/>
<text x="758" y="506" font-family="Arial, sans-serif" font-size="12" fill="#222">gzip/seq_io</text>
<path d="M 88.2 527.9 L 88.8 513.4 L 89.6 492.0 L 96.0 322.8 L 103.9 121.7" fill="none" stroke="#8a4f00" stroke-width="2.5"/>
<circle cx="88.2" cy="527.9" r="4" fill="#8a4f00"/>
<circle cx="88.8" cy="513.4" r="4" fill="#8a4f00"/>
<circle cx="89.6" cy="492.0" r="4" fill="#8a4f00"/>
<circle cx="96.0" cy="322.8" r="4" fill="#8a4f00"/>
<circle cx="103.9" cy="121.7" r="4" fill="#8a4f00"/>
<line x1="726" y1="524" x2="750" y2="524" stroke="#8a4f00" stroke-width="3"/>
<text x="758" y="528" font-family="Arial, sans-serif" font-size="12" fill="#222">gzip/bio</text>
<text x="517" y="595" font-family="Arial, sans-serif" font-size="13" text-anchor="middle" fill="#222">Input size, resident FASTA bytes</text>
<text x="22" y="302" font-family="Arial, sans-serif" font-size="13" text-anchor="middle" fill="#222" transform="rotate(-90 22 302)">Best wall time, ms</text>
</svg>
