<svg xmlns="http://www.w3.org/2000/svg" width="1120" height="496" viewBox="0 0 1120 496">
<rect width="100%" height="100%" fill="white"/>
<text x="24" y="28" font-family="Arial, sans-serif" font-size="18" font-weight="700">Microraptor auto parse throughput</text>
<text x="24" y="46" font-family="Arial, sans-serif" font-size="12" fill="#555">bases/s; parse-only auto opener rows generated from benchmark JSONL</text>
<text x="24" y="71" font-family="Arial, sans-serif" font-size="12" fill="#222">single.fastq / file-auto</text>
<rect x="310" y="58" width="397" height="18" fill="#1f766f"/>
<text x="715" y="71" font-family="Arial, sans-serif" font-size="12" fill="#222">0.87 Gbases/s</text>
<text x="24" y="101" font-family="Arial, sans-serif" font-size="12" fill="#222">single.fastq.gz / file-auto</text>
<rect x="310" y="88" width="445" height="18" fill="#1f766f"/>
<text x="763" y="101" font-family="Arial, sans-serif" font-size="12" fill="#222">0.97 Gbases/s</text>
<text x="24" y="131" font-family="Arial, sans-serif" font-size="12" fill="#222">single.fastq.bgz / file-auto</text>
<rect x="310" y="118" width="479" height="18" fill="#1f766f"/>
<text x="797" y="131" font-family="Arial, sans-serif" font-size="12" fill="#222">1.05 Gbases/s</text>
<text x="24" y="161" font-family="Arial, sans-serif" font-size="12" fill="#222">interleaved.fastq / file-auto</text>
<rect x="310" y="148" width="618" height="18" fill="#1f766f"/>
<text x="936" y="161" font-family="Arial, sans-serif" font-size="12" fill="#222">1.35 Gbases/s</text>
<text x="24" y="191" font-family="Arial, sans-serif" font-size="12" fill="#222">interleaved.fastq.gz / file-auto</text>
<rect x="310" y="178" width="429" height="18" fill="#1f766f"/>
<text x="747" y="191" font-family="Arial, sans-serif" font-size="12" fill="#222">0.94 Gbases/s</text>
<text x="24" y="221" font-family="Arial, sans-serif" font-size="12" fill="#222">interleaved.fastq.bgz / file-auto</text>
<rect x="310" y="208" width="496" height="18" fill="#1f766f"/>
<text x="814" y="221" font-family="Arial, sans-serif" font-size="12" fill="#222">1.08 Gbases/s</text>
<text x="24" y="251" font-family="Arial, sans-serif" font-size="12" fill="#222">r1.fastq / file-auto</text>
<rect x="310" y="238" width="440" height="18" fill="#1f766f"/>
<text x="758" y="251" font-family="Arial, sans-serif" font-size="12" fill="#222">0.96 Gbases/s</text>
<text x="24" y="281" font-family="Arial, sans-serif" font-size="12" fill="#222">r2.fastq / file-auto</text>
<rect x="310" y="268" width="461" height="18" fill="#1f766f"/>
<text x="779" y="281" font-family="Arial, sans-serif" font-size="12" fill="#222">1.01 Gbases/s</text>
<text x="24" y="311" font-family="Arial, sans-serif" font-size="12" fill="#222">r1.fastq+r2.fastq / file-paired-auto</text>
<rect x="310" y="298" width="650" height="18" fill="#1f766f"/>
<text x="968" y="311" font-family="Arial, sans-serif" font-size="12" fill="#222">1.42 Gbases/s</text>
<text x="24" y="341" font-family="Arial, sans-serif" font-size="12" fill="#222">r1.fastq.gz+r2.fastq.gz / file-paired-auto</text>
<rect x="310" y="328" width="455" height="18" fill="#1f766f"/>
<text x="773" y="341" font-family="Arial, sans-serif" font-size="12" fill="#222">0.99 Gbases/s</text>
<text x="24" y="371" font-family="Arial, sans-serif" font-size="12" fill="#222">r1.fastq.bgz+r2.fastq.bgz / file-paired-auto</text>
<rect x="310" y="358" width="474" height="18" fill="#1f766f"/>
<text x="792" y="371" font-family="Arial, sans-serif" font-size="12" fill="#222">1.03 Gbases/s</text>
<text x="24" y="401" font-family="Arial, sans-serif" font-size="12" fill="#222">illumina_pe_r1.1m.fq.gz+illumina_pe_r2.1m.fq.gz / file-paired-auto</text>
<rect x="310" y="388" width="76" height="18" fill="#1f766f"/>
<text x="394" y="401" font-family="Arial, sans-serif" font-size="12" fill="#222">0.17 Gbases/s</text>
<text x="24" y="431" font-family="Arial, sans-serif" font-size="12" fill="#222">illumina_pe_r1.1m.fq.bgz+illumina_pe_r2.1m.fq.bgz / file-paired-auto</text>
<rect x="310" y="418" width="319" height="18" fill="#1f766f"/>
<text x="637" y="431" font-family="Arial, sans-serif" font-size="12" fill="#222">0.70 Gbases/s</text>
</svg>
