<svg xmlns="http://www.w3.org/2000/svg" width="880" height="510" viewBox="0 0 880 510">
<rect width="100%" height="100%" fill="white"/>
<text x="24" y="28" font-family="Arial, sans-serif" font-size="18" font-weight="700">Rust FASTA parser peer throughput</text>
<text x="24" y="46" font-family="Arial, sans-serif" font-size="12" fill="#555">bases/s over the same in-memory FASTA byte buffer</text>
<text x="24" y="76" font-family="Arial, sans-serif" font-size="12" fill="#222">microraptor-resident-visitor</text>
<rect x="190" y="61" width="177" height="20" fill="#23645b"/>
<text x="375" y="76" font-family="Arial, sans-serif" font-size="12" fill="#222">2.32 Gbases/s</text>
<text x="24" y="110" font-family="Arial, sans-serif" font-size="12" fill="#222">microraptor-libdeflate-resident-visitor</text>
<rect x="190" y="95" width="388" height="20" fill="#23645b"/>
<text x="586" y="110" font-family="Arial, sans-serif" font-size="12" fill="#222">5.07 Gbases/s</text>
<text x="24" y="144" font-family="Arial, sans-serif" font-size="12" fill="#222">microraptor-libdeflate-two-line-visitor</text>
<rect x="190" y="129" width="444" height="20" fill="#23645b"/>
<text x="642" y="144" font-family="Arial, sans-serif" font-size="12" fill="#222">5.80 Gbases/s</text>
<text x="24" y="178" font-family="Arial, sans-serif" font-size="12" fill="#222">microraptor-libdeflate-two-line-counter</text>
<rect x="190" y="163" width="500" height="20" fill="#23645b"/>
<text x="698" y="178" font-family="Arial, sans-serif" font-size="12" fill="#222">6.52 Gbases/s</text>
<text x="24" y="212" font-family="Arial, sans-serif" font-size="12" fill="#222">microraptor-two-line-resident-visitor</text>
<rect x="190" y="197" width="266" height="20" fill="#23645b"/>
<text x="464" y="212" font-family="Arial, sans-serif" font-size="12" fill="#222">3.47 Gbases/s</text>
<text x="24" y="246" font-family="Arial, sans-serif" font-size="12" fill="#222">microraptor-two-line-resident-counter</text>
<rect x="190" y="231" width="326" height="20" fill="#23645b"/>
<text x="524" y="246" font-family="Arial, sans-serif" font-size="12" fill="#222">4.25 Gbases/s</text>
<text x="24" y="280" font-family="Arial, sans-serif" font-size="12" fill="#222">microraptor-two-line-stream-visitor</text>
<rect x="190" y="265" width="308" height="20" fill="#23645b"/>
<text x="506" y="280" font-family="Arial, sans-serif" font-size="12" fill="#222">4.03 Gbases/s</text>
<text x="24" y="314" font-family="Arial, sans-serif" font-size="12" fill="#222">microraptor-two-line-stream-counter</text>
<rect x="190" y="299" width="333" height="20" fill="#23645b"/>
<text x="531" y="314" font-family="Arial, sans-serif" font-size="12" fill="#222">4.35 Gbases/s</text>
<text x="24" y="348" font-family="Arial, sans-serif" font-size="12" fill="#222">microraptor-stream</text>
<rect x="190" y="333" width="183" height="20" fill="#23645b"/>
<text x="381" y="348" font-family="Arial, sans-serif" font-size="12" fill="#222">2.40 Gbases/s</text>
<text x="24" y="382" font-family="Arial, sans-serif" font-size="12" fill="#222">microraptor-stream-visitor</text>
<rect x="190" y="367" width="175" height="20" fill="#23645b"/>
<text x="373" y="382" font-family="Arial, sans-serif" font-size="12" fill="#222">2.29 Gbases/s</text>
<text x="24" y="416" font-family="Arial, sans-serif" font-size="12" fill="#222">seq_io</text>
<rect x="190" y="401" width="334" height="20" fill="#23645b"/>
<text x="532" y="416" font-family="Arial, sans-serif" font-size="12" fill="#222">4.36 Gbases/s</text>
<text x="24" y="450" font-family="Arial, sans-serif" font-size="12" fill="#222">bio</text>
<rect x="190" y="435" width="148" height="20" fill="#23645b"/>
<text x="346" y="450" font-family="Arial, sans-serif" font-size="12" fill="#222">1.94 Gbases/s</text>
</svg>
