<svg xmlns="http://www.w3.org/2000/svg" width="1120" height="436" viewBox="0 0 1120 436">
<rect width="100%" height="100%" fill="white"/>
<text x="24" y="28" font-family="Arial, sans-serif" font-size="18" font-weight="700">Microraptor auto parse throughput</text>
<text x="24" y="46" font-family="Arial, sans-serif" font-size="12" fill="#555">bases/s; parse-only auto opener rows generated from benchmark JSONL</text>
<text x="24" y="71" font-family="Arial, sans-serif" font-size="12" fill="#222">single.fastq / file-auto</text>
<rect x="310" y="58" width="603" height="18" fill="#1f766f"/>
<text x="921" y="71" font-family="Arial, sans-serif" font-size="12" fill="#222">1.46 Gbases/s</text>
<text x="24" y="101" font-family="Arial, sans-serif" font-size="12" fill="#222">single.fastq.gz / file-auto</text>
<rect x="310" y="88" width="427" height="18" fill="#1f766f"/>
<text x="745" y="101" font-family="Arial, sans-serif" font-size="12" fill="#222">1.03 Gbases/s</text>
<text x="24" y="131" font-family="Arial, sans-serif" font-size="12" fill="#222">single.fastq.bgz / file-auto</text>
<rect x="310" y="118" width="650" height="18" fill="#1f766f"/>
<text x="968" y="131" font-family="Arial, sans-serif" font-size="12" fill="#222">1.57 Gbases/s</text>
<text x="24" y="161" font-family="Arial, sans-serif" font-size="12" fill="#222">interleaved.fastq / file-auto</text>
<rect x="310" y="148" width="541" height="18" fill="#1f766f"/>
<text x="859" y="161" font-family="Arial, sans-serif" font-size="12" fill="#222">1.31 Gbases/s</text>
<text x="24" y="191" font-family="Arial, sans-serif" font-size="12" fill="#222">interleaved.fastq.gz / file-auto</text>
<rect x="310" y="178" width="412" height="18" fill="#1f766f"/>
<text x="730" y="191" font-family="Arial, sans-serif" font-size="12" fill="#222">1.00 Gbases/s</text>
<text x="24" y="221" font-family="Arial, sans-serif" font-size="12" fill="#222">interleaved.fastq.bgz / file-auto</text>
<rect x="310" y="208" width="647" height="18" fill="#1f766f"/>
<text x="965" y="221" font-family="Arial, sans-serif" font-size="12" fill="#222">1.57 Gbases/s</text>
<text x="24" y="251" font-family="Arial, sans-serif" font-size="12" fill="#222">r1.fastq / file-auto</text>
<rect x="310" y="238" width="529" height="18" fill="#1f766f"/>
<text x="847" y="251" font-family="Arial, sans-serif" font-size="12" fill="#222">1.28 Gbases/s</text>
<text x="24" y="281" font-family="Arial, sans-serif" font-size="12" fill="#222">r2.fastq / file-auto</text>
<rect x="310" y="268" width="532" height="18" fill="#1f766f"/>
<text x="850" y="281" font-family="Arial, sans-serif" font-size="12" fill="#222">1.29 Gbases/s</text>
<text x="24" y="311" font-family="Arial, sans-serif" font-size="12" fill="#222">r1.fastq+r2.fastq / file-paired-auto</text>
<rect x="310" y="298" width="528" height="18" fill="#1f766f"/>
<text x="846" y="311" font-family="Arial, sans-serif" font-size="12" fill="#222">1.28 Gbases/s</text>
<text x="24" y="341" font-family="Arial, sans-serif" font-size="12" fill="#222">r1.fastq.gz+r2.fastq.gz / file-paired-auto</text>
<rect x="310" y="328" width="411" height="18" fill="#1f766f"/>
<text x="729" y="341" font-family="Arial, sans-serif" font-size="12" fill="#222">0.99 Gbases/s</text>
<text x="24" y="371" font-family="Arial, sans-serif" font-size="12" fill="#222">r1.fastq.bgz+r2.fastq.bgz / file-paired-auto</text>
<rect x="310" y="358" width="627" height="18" fill="#1f766f"/>
<text x="945" y="371" font-family="Arial, sans-serif" font-size="12" fill="#222">1.52 Gbases/s</text>
</svg>
