<svg xmlns="http://www.w3.org/2000/svg" width="980" height="766" viewBox="0 0 980 766">
<rect width="100%" height="100%" fill="white"/>
<text x="24" y="28" font-family="Arial, sans-serif" font-size="18" font-weight="700">External tool wall-clock timings</text>
<text x="24" y="46" font-family="Arial, sans-serif" font-size="12" fill="#555">seconds; only installed tools with successful exit status are shown</text>
<text x="24" y="71" font-family="Arial, sans-serif" font-size="12" fill="#222">seqkit stats single/raw</text>
<rect x="290" y="58" width="44" height="18" fill="#7a4a1d"/>
<text x="342" y="71" font-family="Arial, sans-serif" font-size="12" fill="#222">0.02 s</text>
<text x="24" y="101" font-family="Arial, sans-serif" font-size="12" fill="#222">seqkit stats single/gzip</text>
<rect x="290" y="88" width="44" height="18" fill="#7a4a1d"/>
<text x="342" y="101" font-family="Arial, sans-serif" font-size="12" fill="#222">0.02 s</text>
<text x="24" y="131" font-family="Arial, sans-serif" font-size="12" fill="#222">seqkit stats single/bgzf</text>
<rect x="290" y="118" width="67" height="18" fill="#7a4a1d"/>
<text x="365" y="131" font-family="Arial, sans-serif" font-size="12" fill="#222">0.03 s</text>
<text x="24" y="161" font-family="Arial, sans-serif" font-size="12" fill="#222">seqkit stats paired/r1/raw</text>
<rect x="290" y="148" width="44" height="18" fill="#7a4a1d"/>
<text x="342" y="161" font-family="Arial, sans-serif" font-size="12" fill="#222">0.02 s</text>
<text x="24" y="191" font-family="Arial, sans-serif" font-size="12" fill="#222">seqkit stats paired/r2/raw</text>
<rect x="290" y="178" width="44" height="18" fill="#7a4a1d"/>
<text x="342" y="191" font-family="Arial, sans-serif" font-size="12" fill="#222">0.02 s</text>
<text x="24" y="221" font-family="Arial, sans-serif" font-size="12" fill="#222">seqkit stats paired/r1/gzip</text>
<rect x="290" y="208" width="44" height="18" fill="#7a4a1d"/>
<text x="342" y="221" font-family="Arial, sans-serif" font-size="12" fill="#222">0.02 s</text>
<text x="24" y="251" font-family="Arial, sans-serif" font-size="12" fill="#222">seqkit stats paired/r2/gzip</text>
<rect x="290" y="238" width="44" height="18" fill="#7a4a1d"/>
<text x="342" y="251" font-family="Arial, sans-serif" font-size="12" fill="#222">0.02 s</text>
<text x="24" y="281" font-family="Arial, sans-serif" font-size="12" fill="#222">seqkit stats paired/r1/bgzf</text>
<rect x="290" y="268" width="89" height="18" fill="#7a4a1d"/>
<text x="387" y="281" font-family="Arial, sans-serif" font-size="12" fill="#222">0.04 s</text>
<text x="24" y="311" font-family="Arial, sans-serif" font-size="12" fill="#222">seqkit stats paired/r2/bgzf</text>
<rect x="290" y="298" width="89" height="18" fill="#7a4a1d"/>
<text x="387" y="311" font-family="Arial, sans-serif" font-size="12" fill="#222">0.04 s</text>
<text x="24" y="341" font-family="Arial, sans-serif" font-size="12" fill="#222">seqtk comp single/raw</text>
<rect x="290" y="328" width="156" height="18" fill="#7a4a1d"/>
<text x="454" y="341" font-family="Arial, sans-serif" font-size="12" fill="#222">0.07 s</text>
<text x="24" y="371" font-family="Arial, sans-serif" font-size="12" fill="#222">seqtk comp single/gzip</text>
<rect x="290" y="358" width="156" height="18" fill="#7a4a1d"/>
<text x="454" y="371" font-family="Arial, sans-serif" font-size="12" fill="#222">0.07 s</text>
<text x="24" y="401" font-family="Arial, sans-serif" font-size="12" fill="#222">seqtk comp single/bgzf</text>
<rect x="290" y="388" width="156" height="18" fill="#7a4a1d"/>
<text x="454" y="401" font-family="Arial, sans-serif" font-size="12" fill="#222">0.07 s</text>
<text x="24" y="431" font-family="Arial, sans-serif" font-size="12" fill="#222">seqtk fqchk single/raw</text>
<rect x="290" y="418" width="44" height="18" fill="#7a4a1d"/>
<text x="342" y="431" font-family="Arial, sans-serif" font-size="12" fill="#222">0.02 s</text>
<text x="24" y="461" font-family="Arial, sans-serif" font-size="12" fill="#222">bgzip test single/bgzf</text>
<rect x="290" y="448" width="0" height="18" fill="#7a4a1d"/>
<text x="298" y="461" font-family="Arial, sans-serif" font-size="12" fill="#222">0.00 s</text>
<text x="24" y="491" font-family="Arial, sans-serif" font-size="12" fill="#222">bgzip decompress single/bgzf</text>
<rect x="290" y="478" width="0" height="18" fill="#7a4a1d"/>
<text x="298" y="491" font-family="Arial, sans-serif" font-size="12" fill="#222">0.00 s</text>
<text x="24" y="521" font-family="Arial, sans-serif" font-size="12" fill="#222">samtools import single/raw</text>
<rect x="290" y="508" width="112" height="18" fill="#7a4a1d"/>
<text x="410" y="521" font-family="Arial, sans-serif" font-size="12" fill="#222">0.05 s</text>
<text x="24" y="551" font-family="Arial, sans-serif" font-size="12" fill="#222">samtools import paired/raw</text>
<rect x="290" y="538" width="156" height="18" fill="#7a4a1d"/>
<text x="454" y="551" font-family="Arial, sans-serif" font-size="12" fill="#222">0.07 s</text>
<text x="24" y="581" font-family="Arial, sans-serif" font-size="12" fill="#222">samtools import paired/gzip</text>
<rect x="290" y="568" width="201" height="18" fill="#7a4a1d"/>
<text x="499" y="581" font-family="Arial, sans-serif" font-size="12" fill="#222">0.09 s</text>
<text x="24" y="611" font-family="Arial, sans-serif" font-size="12" fill="#222">samtools import paired/bgzf</text>
<rect x="290" y="598" width="134" height="18" fill="#7a4a1d"/>
<text x="432" y="611" font-family="Arial, sans-serif" font-size="12" fill="#222">0.06 s</text>
<text x="24" y="641" font-family="Arial, sans-serif" font-size="12" fill="#222">fastp paired/raw</text>
<rect x="290" y="628" width="515" height="18" fill="#7a4a1d"/>
<text x="813" y="641" font-family="Arial, sans-serif" font-size="12" fill="#222">0.23 s</text>
<text x="24" y="671" font-family="Arial, sans-serif" font-size="12" fill="#222">fastp paired/gzip</text>
<rect x="290" y="658" width="560" height="18" fill="#7a4a1d"/>
<text x="858" y="671" font-family="Arial, sans-serif" font-size="12" fill="#222">0.25 s</text>
<text x="24" y="701" font-family="Arial, sans-serif" font-size="12" fill="#222">fastp paired/bgzf</text>
<rect x="290" y="688" width="313" height="18" fill="#7a4a1d"/>
<text x="611" y="701" font-family="Arial, sans-serif" font-size="12" fill="#222">0.14 s</text>
</svg>
