<svg xmlns="http://www.w3.org/2000/svg" width="980" height="1246" viewBox="0 0 980 1246">
<rect width="100%" height="100%" fill="white"/>
<text x="24" y="28" font-family="Arial, sans-serif" font-size="18" font-weight="700">External tool wall-clock timings</text>
<text x="24" y="46" font-family="Arial, sans-serif" font-size="12" fill="#555">seconds; only installed tools with successful exit status are shown</text>
<text x="24" y="71" font-family="Arial, sans-serif" font-size="12" fill="#222">seqkit stats single/raw</text>
<rect x="290" y="58" width="11" height="18" fill="#7a4a1d"/>
<text x="309" y="71" font-family="Arial, sans-serif" font-size="12" fill="#222">0.02 s</text>
<text x="24" y="101" font-family="Arial, sans-serif" font-size="12" fill="#222">seqkit stats single/gzip</text>
<rect x="290" y="88" width="11" height="18" fill="#7a4a1d"/>
<text x="309" y="101" font-family="Arial, sans-serif" font-size="12" fill="#222">0.02 s</text>
<text x="24" y="131" font-family="Arial, sans-serif" font-size="12" fill="#222">seqkit stats single/bgzf</text>
<rect x="290" y="118" width="17" height="18" fill="#7a4a1d"/>
<text x="315" y="131" font-family="Arial, sans-serif" font-size="12" fill="#222">0.03 s</text>
<text x="24" y="161" font-family="Arial, sans-serif" font-size="12" fill="#222">seqkit stats paired/r1/raw</text>
<rect x="290" y="148" width="5" height="18" fill="#7a4a1d"/>
<text x="303" y="161" font-family="Arial, sans-serif" font-size="12" fill="#222">0.01 s</text>
<text x="24" y="191" font-family="Arial, sans-serif" font-size="12" fill="#222">seqkit stats paired/r2/raw</text>
<rect x="290" y="178" width="11" height="18" fill="#7a4a1d"/>
<text x="309" y="191" font-family="Arial, sans-serif" font-size="12" fill="#222">0.02 s</text>
<text x="24" y="221" font-family="Arial, sans-serif" font-size="12" fill="#222">seqkit stats paired/r1/gzip</text>
<rect x="290" y="208" width="11" height="18" fill="#7a4a1d"/>
<text x="309" y="221" font-family="Arial, sans-serif" font-size="12" fill="#222">0.02 s</text>
<text x="24" y="251" font-family="Arial, sans-serif" font-size="12" fill="#222">seqkit stats paired/r2/gzip</text>
<rect x="290" y="238" width="11" height="18" fill="#7a4a1d"/>
<text x="309" y="251" font-family="Arial, sans-serif" font-size="12" fill="#222">0.02 s</text>
<text x="24" y="281" font-family="Arial, sans-serif" font-size="12" fill="#222">seqkit stats paired/r1/bgzf</text>
<rect x="290" y="268" width="17" height="18" fill="#7a4a1d"/>
<text x="315" y="281" font-family="Arial, sans-serif" font-size="12" fill="#222">0.03 s</text>
<text x="24" y="311" font-family="Arial, sans-serif" font-size="12" fill="#222">seqkit stats paired/r2/bgzf</text>
<rect x="290" y="298" width="17" height="18" fill="#7a4a1d"/>
<text x="315" y="311" font-family="Arial, sans-serif" font-size="12" fill="#222">0.03 s</text>
<text x="24" y="341" font-family="Arial, sans-serif" font-size="12" fill="#222">seqtk comp single/raw</text>
<rect x="290" y="328" width="35" height="18" fill="#7a4a1d"/>
<text x="333" y="341" font-family="Arial, sans-serif" font-size="12" fill="#222">0.06 s</text>
<text x="24" y="371" font-family="Arial, sans-serif" font-size="12" fill="#222">seqtk comp single/gzip</text>
<rect x="290" y="358" width="41" height="18" fill="#7a4a1d"/>
<text x="339" y="371" font-family="Arial, sans-serif" font-size="12" fill="#222">0.07 s</text>
<text x="24" y="401" font-family="Arial, sans-serif" font-size="12" fill="#222">seqtk comp single/bgzf</text>
<rect x="290" y="388" width="47" height="18" fill="#7a4a1d"/>
<text x="345" y="401" font-family="Arial, sans-serif" font-size="12" fill="#222">0.08 s</text>
<text x="24" y="431" font-family="Arial, sans-serif" font-size="12" fill="#222">seqtk fqchk single/raw</text>
<rect x="290" y="418" width="11" height="18" fill="#7a4a1d"/>
<text x="309" y="431" font-family="Arial, sans-serif" font-size="12" fill="#222">0.02 s</text>
<text x="24" y="461" font-family="Arial, sans-serif" font-size="12" fill="#222">bgzip test single/bgzf</text>
<rect x="290" y="448" width="0" height="18" fill="#7a4a1d"/>
<text x="298" y="461" font-family="Arial, sans-serif" font-size="12" fill="#222">0.00 s</text>
<text x="24" y="491" font-family="Arial, sans-serif" font-size="12" fill="#222">bgzip decompress single/bgzf</text>
<rect x="290" y="478" width="0" height="18" fill="#7a4a1d"/>
<text x="298" y="491" font-family="Arial, sans-serif" font-size="12" fill="#222">0.00 s</text>
<text x="24" y="521" font-family="Arial, sans-serif" font-size="12" fill="#222">samtools import single/raw</text>
<rect x="290" y="508" width="23" height="18" fill="#7a4a1d"/>
<text x="321" y="521" font-family="Arial, sans-serif" font-size="12" fill="#222">0.04 s</text>
<text x="24" y="551" font-family="Arial, sans-serif" font-size="12" fill="#222">samtools import paired/raw</text>
<rect x="290" y="538" width="35" height="18" fill="#7a4a1d"/>
<text x="333" y="551" font-family="Arial, sans-serif" font-size="12" fill="#222">0.06 s</text>
<text x="24" y="581" font-family="Arial, sans-serif" font-size="12" fill="#222">samtools import paired/gzip</text>
<rect x="290" y="568" width="53" height="18" fill="#7a4a1d"/>
<text x="351" y="581" font-family="Arial, sans-serif" font-size="12" fill="#222">0.09 s</text>
<text x="24" y="611" font-family="Arial, sans-serif" font-size="12" fill="#222">samtools import paired/bgzf</text>
<rect x="290" y="598" width="41" height="18" fill="#7a4a1d"/>
<text x="339" y="611" font-family="Arial, sans-serif" font-size="12" fill="#222">0.07 s</text>
<text x="24" y="641" font-family="Arial, sans-serif" font-size="12" fill="#222">fastp paired/raw</text>
<rect x="290" y="628" width="125" height="18" fill="#7a4a1d"/>
<text x="423" y="641" font-family="Arial, sans-serif" font-size="12" fill="#222">0.21 s</text>
<text x="24" y="671" font-family="Arial, sans-serif" font-size="12" fill="#222">fastp paired/gzip</text>
<rect x="290" y="658" width="137" height="18" fill="#7a4a1d"/>
<text x="435" y="671" font-family="Arial, sans-serif" font-size="12" fill="#222">0.23 s</text>
<text x="24" y="701" font-family="Arial, sans-serif" font-size="12" fill="#222">fastp paired/bgzf</text>
<rect x="290" y="688" width="77" height="18" fill="#7a4a1d"/>
<text x="375" y="701" font-family="Arial, sans-serif" font-size="12" fill="#222">0.13 s</text>
<text x="24" y="731" font-family="Arial, sans-serif" font-size="12" fill="#222">seqkit stats corpus-paired/drosophila_illumina_1m_raw/r1</text>
<rect x="290" y="718" width="41" height="18" fill="#7a4a1d"/>
<text x="339" y="731" font-family="Arial, sans-serif" font-size="12" fill="#222">0.07 s</text>
<text x="24" y="761" font-family="Arial, sans-serif" font-size="12" fill="#222">seqkit stats corpus-paired/drosophila_illumina_1m_raw/r2</text>
<rect x="290" y="748" width="47" height="18" fill="#7a4a1d"/>
<text x="345" y="761" font-family="Arial, sans-serif" font-size="12" fill="#222">0.08 s</text>
<text x="24" y="791" font-family="Arial, sans-serif" font-size="12" fill="#222">seqtk fqchk corpus-paired/drosophila_illumina_1m_raw/r1</text>
<rect x="290" y="778" width="47" height="18" fill="#7a4a1d"/>
<text x="345" y="791" font-family="Arial, sans-serif" font-size="12" fill="#222">0.08 s</text>
<text x="24" y="821" font-family="Arial, sans-serif" font-size="12" fill="#222">seqtk fqchk corpus-paired/drosophila_illumina_1m_raw/r2</text>
<rect x="290" y="808" width="47" height="18" fill="#7a4a1d"/>
<text x="345" y="821" font-family="Arial, sans-serif" font-size="12" fill="#222">0.08 s</text>
<text x="24" y="851" font-family="Arial, sans-serif" font-size="12" fill="#222">samtools import corpus-paired/drosophila_illumina_1m_raw</text>
<rect x="290" y="838" width="172" height="18" fill="#7a4a1d"/>
<text x="470" y="851" font-family="Arial, sans-serif" font-size="12" fill="#222">0.29 s</text>
<text x="24" y="881" font-family="Arial, sans-serif" font-size="12" fill="#222">fastp corpus-paired/drosophila_illumina_1m_raw</text>
<rect x="290" y="868" width="351" height="18" fill="#7a4a1d"/>
<text x="649" y="881" font-family="Arial, sans-serif" font-size="12" fill="#222">0.59 s</text>
<text x="24" y="911" font-family="Arial, sans-serif" font-size="12" fill="#222">seqkit stats corpus/pacbio_clr_subreads.50k.fq</text>
<rect x="290" y="898" width="11" height="18" fill="#7a4a1d"/>
<text x="309" y="911" font-family="Arial, sans-serif" font-size="12" fill="#222">0.02 s</text>
<text x="24" y="941" font-family="Arial, sans-serif" font-size="12" fill="#222">seqtk comp corpus/pacbio_clr_subreads.50k.fq</text>
<rect x="290" y="928" width="184" height="18" fill="#7a4a1d"/>
<text x="482" y="941" font-family="Arial, sans-serif" font-size="12" fill="#222">0.31 s</text>
<text x="24" y="971" font-family="Arial, sans-serif" font-size="12" fill="#222">seqtk fqchk corpus/pacbio_clr_subreads.50k.fq</text>
<rect x="290" y="958" width="113" height="18" fill="#7a4a1d"/>
<text x="411" y="971" font-family="Arial, sans-serif" font-size="12" fill="#222">0.19 s</text>
<text x="24" y="1001" font-family="Arial, sans-serif" font-size="12" fill="#222">samtools import corpus/pacbio_clr_subreads.50k.fq</text>
<rect x="290" y="988" width="190" height="18" fill="#7a4a1d"/>
<text x="488" y="1001" font-family="Arial, sans-serif" font-size="12" fill="#222">0.32 s</text>
<text x="24" y="1031" font-family="Arial, sans-serif" font-size="12" fill="#222">fastp corpus/pacbio_clr_subreads.50k.fq</text>
<rect x="290" y="1018" width="357" height="18" fill="#7a4a1d"/>
<text x="655" y="1031" font-family="Arial, sans-serif" font-size="12" fill="#222">0.60 s</text>
<text x="24" y="1061" font-family="Arial, sans-serif" font-size="12" fill="#222">seqkit stats corpus/ont.50k.fq</text>
<rect x="290" y="1048" width="101" height="18" fill="#7a4a1d"/>
<text x="399" y="1061" font-family="Arial, sans-serif" font-size="12" fill="#222">0.17 s</text>
<text x="24" y="1091" font-family="Arial, sans-serif" font-size="12" fill="#222">seqtk comp corpus/ont.50k.fq</text>
<rect x="290" y="1078" width="357" height="18" fill="#7a4a1d"/>
<text x="655" y="1091" font-family="Arial, sans-serif" font-size="12" fill="#222">0.60 s</text>
<text x="24" y="1121" font-family="Arial, sans-serif" font-size="12" fill="#222">seqtk fqchk corpus/ont.50k.fq</text>
<rect x="290" y="1108" width="226" height="18" fill="#7a4a1d"/>
<text x="524" y="1121" font-family="Arial, sans-serif" font-size="12" fill="#222">0.38 s</text>
<text x="24" y="1151" font-family="Arial, sans-serif" font-size="12" fill="#222">samtools import corpus/ont.50k.fq</text>
<rect x="290" y="1138" width="262" height="18" fill="#7a4a1d"/>
<text x="560" y="1151" font-family="Arial, sans-serif" font-size="12" fill="#222">0.44 s</text>
<text x="24" y="1181" font-family="Arial, sans-serif" font-size="12" fill="#222">fastp corpus/ont.50k.fq</text>
<rect x="290" y="1168" width="560" height="18" fill="#7a4a1d"/>
<text x="858" y="1181" font-family="Arial, sans-serif" font-size="12" fill="#222">0.94 s</text>
</svg>
