<svg xmlns="http://www.w3.org/2000/svg" width="1120" height="1426" viewBox="0 0 1120 1426">
<rect width="100%" height="100%" fill="white"/>
<text x="24" y="28" font-family="Arial, sans-serif" font-size="18" font-weight="700">Microraptor pack and side-channel throughput</text>
<text x="24" y="46" font-family="Arial, sans-serif" font-size="12" fill="#555">bases/s; rows include base packing and quality summary work</text>
<text x="24" y="71" font-family="Arial, sans-serif" font-size="12" fill="#222">single.fastq / file-pack-seq-qual</text>
<rect x="310" y="58" width="595" height="18" fill="#1f766f"/>
<text x="913" y="71" font-family="Arial, sans-serif" font-size="12" fill="#222">0.53 Gbases/s</text>
<text x="24" y="101" font-family="Arial, sans-serif" font-size="12" fill="#222">single.fastq / file-direct-pack-seq-qual</text>
<rect x="310" y="88" width="530" height="18" fill="#1f766f"/>
<text x="848" y="101" font-family="Arial, sans-serif" font-size="12" fill="#222">0.47 Gbases/s</text>
<text x="24" y="131" font-family="Arial, sans-serif" font-size="12" fill="#222">single.fastq / file-reader-pack-seq-qual</text>
<rect x="310" y="118" width="619" height="18" fill="#1f766f"/>
<text x="937" y="131" font-family="Arial, sans-serif" font-size="12" fill="#222">0.55 Gbases/s</text>
<text x="24" y="161" font-family="Arial, sans-serif" font-size="12" fill="#222">single.fastq.gz / file-pack-seq-qual</text>
<rect x="310" y="148" width="524" height="18" fill="#1f766f"/>
<text x="842" y="161" font-family="Arial, sans-serif" font-size="12" fill="#222">0.46 Gbases/s</text>
<text x="24" y="191" font-family="Arial, sans-serif" font-size="12" fill="#222">single.fastq.gz / file-direct-pack-seq-qual</text>
<rect x="310" y="178" width="478" height="18" fill="#1f766f"/>
<text x="796" y="191" font-family="Arial, sans-serif" font-size="12" fill="#222">0.42 Gbases/s</text>
<text x="24" y="221" font-family="Arial, sans-serif" font-size="12" fill="#222">single.fastq.gz / file-reader-pack-seq-qual</text>
<rect x="310" y="208" width="523" height="18" fill="#1f766f"/>
<text x="841" y="221" font-family="Arial, sans-serif" font-size="12" fill="#222">0.46 Gbases/s</text>
<text x="24" y="251" font-family="Arial, sans-serif" font-size="12" fill="#222">single.fastq.bgz / file-pack-seq-qual</text>
<rect x="310" y="238" width="629" height="18" fill="#1f766f"/>
<text x="947" y="251" font-family="Arial, sans-serif" font-size="12" fill="#222">0.56 Gbases/s</text>
<text x="24" y="281" font-family="Arial, sans-serif" font-size="12" fill="#222">single.fastq.bgz / file-direct-pack-seq-qual</text>
<rect x="310" y="268" width="547" height="18" fill="#1f766f"/>
<text x="865" y="281" font-family="Arial, sans-serif" font-size="12" fill="#222">0.48 Gbases/s</text>
<text x="24" y="311" font-family="Arial, sans-serif" font-size="12" fill="#222">single.fastq.bgz / file-reader-pack-seq-qual</text>
<rect x="310" y="298" width="615" height="18" fill="#1f766f"/>
<text x="933" y="311" font-family="Arial, sans-serif" font-size="12" fill="#222">0.55 Gbases/s</text>
<text x="24" y="341" font-family="Arial, sans-serif" font-size="12" fill="#222">single.fastq.bgz / file-bgzf-adaptive-pack-seq-qual</text>
<rect x="310" y="328" width="634" height="18" fill="#1f766f"/>
<text x="952" y="341" font-family="Arial, sans-serif" font-size="12" fill="#222">0.56 Gbases/s</text>
<text x="24" y="371" font-family="Arial, sans-serif" font-size="12" fill="#222">single.fastq.bgz / file-bgzf-libdeflate-serial-pack-seq-qual</text>
<rect x="310" y="358" width="535" height="18" fill="#1f766f"/>
<text x="853" y="371" font-family="Arial, sans-serif" font-size="12" fill="#222">0.47 Gbases/s</text>
<text x="24" y="401" font-family="Arial, sans-serif" font-size="12" fill="#222">single.fastq.bgz / file-bgzf-libdeflate-adaptive-pack-seq-qual</text>
<rect x="310" y="388" width="637" height="18" fill="#1f766f"/>
<text x="955" y="401" font-family="Arial, sans-serif" font-size="12" fill="#222">0.56 Gbases/s</text>
<text x="24" y="431" font-family="Arial, sans-serif" font-size="12" fill="#222">interleaved.fastq / file-pack-seq-qual</text>
<rect x="310" y="418" width="609" height="18" fill="#1f766f"/>
<text x="927" y="431" font-family="Arial, sans-serif" font-size="12" fill="#222">0.54 Gbases/s</text>
<text x="24" y="461" font-family="Arial, sans-serif" font-size="12" fill="#222">interleaved.fastq / file-direct-pack-seq-qual</text>
<rect x="310" y="448" width="553" height="18" fill="#1f766f"/>
<text x="871" y="461" font-family="Arial, sans-serif" font-size="12" fill="#222">0.49 Gbases/s</text>
<text x="24" y="491" font-family="Arial, sans-serif" font-size="12" fill="#222">interleaved.fastq / file-reader-pack-seq-qual</text>
<rect x="310" y="478" width="613" height="18" fill="#1f766f"/>
<text x="931" y="491" font-family="Arial, sans-serif" font-size="12" fill="#222">0.54 Gbases/s</text>
<text x="24" y="521" font-family="Arial, sans-serif" font-size="12" fill="#222">interleaved.fastq.gz / file-pack-seq-qual</text>
<rect x="310" y="508" width="517" height="18" fill="#1f766f"/>
<text x="835" y="521" font-family="Arial, sans-serif" font-size="12" fill="#222">0.46 Gbases/s</text>
<text x="24" y="551" font-family="Arial, sans-serif" font-size="12" fill="#222">interleaved.fastq.gz / file-direct-pack-seq-qual</text>
<rect x="310" y="538" width="465" height="18" fill="#1f766f"/>
<text x="783" y="551" font-family="Arial, sans-serif" font-size="12" fill="#222">0.41 Gbases/s</text>
<text x="24" y="581" font-family="Arial, sans-serif" font-size="12" fill="#222">interleaved.fastq.gz / file-reader-pack-seq-qual</text>
<rect x="310" y="568" width="521" height="18" fill="#1f766f"/>
<text x="839" y="581" font-family="Arial, sans-serif" font-size="12" fill="#222">0.46 Gbases/s</text>
<text x="24" y="611" font-family="Arial, sans-serif" font-size="12" fill="#222">interleaved.fastq.bgz / file-pack-seq-qual</text>
<rect x="310" y="598" width="612" height="18" fill="#1f766f"/>
<text x="930" y="611" font-family="Arial, sans-serif" font-size="12" fill="#222">0.54 Gbases/s</text>
<text x="24" y="641" font-family="Arial, sans-serif" font-size="12" fill="#222">interleaved.fastq.bgz / file-direct-pack-seq-qual</text>
<rect x="310" y="628" width="535" height="18" fill="#1f766f"/>
<text x="853" y="641" font-family="Arial, sans-serif" font-size="12" fill="#222">0.47 Gbases/s</text>
<text x="24" y="671" font-family="Arial, sans-serif" font-size="12" fill="#222">interleaved.fastq.bgz / file-reader-pack-seq-qual</text>
<rect x="310" y="658" width="630" height="18" fill="#1f766f"/>
<text x="948" y="671" font-family="Arial, sans-serif" font-size="12" fill="#222">0.56 Gbases/s</text>
<text x="24" y="701" font-family="Arial, sans-serif" font-size="12" fill="#222">interleaved.fastq.bgz / file-bgzf-adaptive-pack-seq-qual</text>
<rect x="310" y="688" width="616" height="18" fill="#1f766f"/>
<text x="934" y="701" font-family="Arial, sans-serif" font-size="12" fill="#222">0.55 Gbases/s</text>
<text x="24" y="731" font-family="Arial, sans-serif" font-size="12" fill="#222">interleaved.fastq.bgz / file-bgzf-libdeflate-serial-pack-seq-qual</text>
<rect x="310" y="718" width="548" height="18" fill="#1f766f"/>
<text x="866" y="731" font-family="Arial, sans-serif" font-size="12" fill="#222">0.49 Gbases/s</text>
<text x="24" y="761" font-family="Arial, sans-serif" font-size="12" fill="#222">interleaved.fastq.bgz / file-bgzf-libdeflate-adaptive-pack-seq-qual</text>
<rect x="310" y="748" width="614" height="18" fill="#1f766f"/>
<text x="932" y="761" font-family="Arial, sans-serif" font-size="12" fill="#222">0.54 Gbases/s</text>
<text x="24" y="791" font-family="Arial, sans-serif" font-size="12" fill="#222">r1.fastq / file-pack-seq-qual</text>
<rect x="310" y="778" width="623" height="18" fill="#1f766f"/>
<text x="941" y="791" font-family="Arial, sans-serif" font-size="12" fill="#222">0.55 Gbases/s</text>
<text x="24" y="821" font-family="Arial, sans-serif" font-size="12" fill="#222">r1.fastq / file-direct-pack-seq-qual</text>
<rect x="310" y="808" width="529" height="18" fill="#1f766f"/>
<text x="847" y="821" font-family="Arial, sans-serif" font-size="12" fill="#222">0.47 Gbases/s</text>
<text x="24" y="851" font-family="Arial, sans-serif" font-size="12" fill="#222">r1.fastq / file-reader-pack-seq-qual</text>
<rect x="310" y="838" width="604" height="18" fill="#1f766f"/>
<text x="922" y="851" font-family="Arial, sans-serif" font-size="12" fill="#222">0.54 Gbases/s</text>
<text x="24" y="881" font-family="Arial, sans-serif" font-size="12" fill="#222">r2.fastq / file-pack-seq-qual</text>
<rect x="310" y="868" width="623" height="18" fill="#1f766f"/>
<text x="941" y="881" font-family="Arial, sans-serif" font-size="12" fill="#222">0.55 Gbases/s</text>
<text x="24" y="911" font-family="Arial, sans-serif" font-size="12" fill="#222">r2.fastq / file-direct-pack-seq-qual</text>
<rect x="310" y="898" width="536" height="18" fill="#1f766f"/>
<text x="854" y="911" font-family="Arial, sans-serif" font-size="12" fill="#222">0.48 Gbases/s</text>
<text x="24" y="941" font-family="Arial, sans-serif" font-size="12" fill="#222">r2.fastq / file-reader-pack-seq-qual</text>
<rect x="310" y="928" width="629" height="18" fill="#1f766f"/>
<text x="947" y="941" font-family="Arial, sans-serif" font-size="12" fill="#222">0.56 Gbases/s</text>
<text x="24" y="971" font-family="Arial, sans-serif" font-size="12" fill="#222">r1.fastq+r2.fastq / file-paired-pack-seq-qual</text>
<rect x="310" y="958" width="620" height="18" fill="#1f766f"/>
<text x="938" y="971" font-family="Arial, sans-serif" font-size="12" fill="#222">0.55 Gbases/s</text>
<text x="24" y="1001" font-family="Arial, sans-serif" font-size="12" fill="#222">r1.fastq+r2.fastq / file-paired-trusted-pack-seq-qual</text>
<rect x="310" y="988" width="642" height="18" fill="#1f766f"/>
<text x="960" y="1001" font-family="Arial, sans-serif" font-size="12" fill="#222">0.57 Gbases/s</text>
<text x="24" y="1031" font-family="Arial, sans-serif" font-size="12" fill="#222">r1.fastq.gz+r2.fastq.gz / file-paired-pack-seq-qual</text>
<rect x="310" y="1018" width="528" height="18" fill="#1f766f"/>
<text x="846" y="1031" font-family="Arial, sans-serif" font-size="12" fill="#222">0.47 Gbases/s</text>
<text x="24" y="1061" font-family="Arial, sans-serif" font-size="12" fill="#222">r1.fastq.gz+r2.fastq.gz / file-paired-trusted-pack-seq-qual</text>
<rect x="310" y="1048" width="542" height="18" fill="#1f766f"/>
<text x="860" y="1061" font-family="Arial, sans-serif" font-size="12" fill="#222">0.48 Gbases/s</text>
<text x="24" y="1091" font-family="Arial, sans-serif" font-size="12" fill="#222">r1.fastq.bgz+r2.fastq.bgz / file-paired-pack-seq-qual</text>
<rect x="310" y="1078" width="641" height="18" fill="#1f766f"/>
<text x="959" y="1091" font-family="Arial, sans-serif" font-size="12" fill="#222">0.57 Gbases/s</text>
<text x="24" y="1121" font-family="Arial, sans-serif" font-size="12" fill="#222">r1.fastq.bgz+r2.fastq.bgz / file-paired-trusted-pack-seq-qual</text>
<rect x="310" y="1108" width="650" height="18" fill="#1f766f"/>
<text x="968" y="1121" font-family="Arial, sans-serif" font-size="12" fill="#222">0.58 Gbases/s</text>
<text x="24" y="1151" font-family="Arial, sans-serif" font-size="12" fill="#222">pacbio_clr_subreads.50k.fq / file-pack-seq-qual</text>
<rect x="310" y="1138" width="191" height="18" fill="#1f766f"/>
<text x="509" y="1151" font-family="Arial, sans-serif" font-size="12" fill="#222">0.17 Gbases/s</text>
<text x="24" y="1181" font-family="Arial, sans-serif" font-size="12" fill="#222">pacbio_clr_subreads.50k.fq / file-direct-pack-seq-qual</text>
<rect x="310" y="1168" width="191" height="18" fill="#1f766f"/>
<text x="509" y="1181" font-family="Arial, sans-serif" font-size="12" fill="#222">0.17 Gbases/s</text>
<text x="24" y="1211" font-family="Arial, sans-serif" font-size="12" fill="#222">pacbio_clr_subreads.50k.fq / file-reader-pack-seq-qual</text>
<rect x="310" y="1198" width="190" height="18" fill="#1f766f"/>
<text x="508" y="1211" font-family="Arial, sans-serif" font-size="12" fill="#222">0.17 Gbases/s</text>
<text x="24" y="1241" font-family="Arial, sans-serif" font-size="12" fill="#222">ont.50k.fq / file-pack-seq-qual</text>
<rect x="310" y="1228" width="181" height="18" fill="#1f766f"/>
<text x="499" y="1241" font-family="Arial, sans-serif" font-size="12" fill="#222">0.16 Gbases/s</text>
<text x="24" y="1271" font-family="Arial, sans-serif" font-size="12" fill="#222">ont.50k.fq / file-direct-pack-seq-qual</text>
<rect x="310" y="1258" width="183" height="18" fill="#1f766f"/>
<text x="501" y="1271" font-family="Arial, sans-serif" font-size="12" fill="#222">0.16 Gbases/s</text>
<text x="24" y="1301" font-family="Arial, sans-serif" font-size="12" fill="#222">ont.50k.fq / file-reader-pack-seq-qual</text>
<rect x="310" y="1288" width="182" height="18" fill="#1f766f"/>
<text x="500" y="1301" font-family="Arial, sans-serif" font-size="12" fill="#222">0.16 Gbases/s</text>
<text x="24" y="1331" font-family="Arial, sans-serif" font-size="12" fill="#222">illumina_pe_r1.1m.fq+illumina_pe_r2.1m.fq / file-paired-pack-seq-qual</text>
<rect x="310" y="1318" width="146" height="18" fill="#1f766f"/>
<text x="464" y="1331" font-family="Arial, sans-serif" font-size="12" fill="#222">0.13 Gbases/s</text>
<text x="24" y="1361" font-family="Arial, sans-serif" font-size="12" fill="#222">illumina_pe_r1.1m.fq+illumina_pe_r2.1m.fq / file-paired-trusted-pack-seq-qual</text>
<rect x="310" y="1348" width="152" height="18" fill="#1f766f"/>
<text x="470" y="1361" font-family="Arial, sans-serif" font-size="12" fill="#222">0.14 Gbases/s</text>
</svg>
